<svg version="1.1" id="Layer_1" xmlns="http://www.w3.org/2000/svg" xmlns:xlink="http://www.w3.org/1999/xlink" x="0px" y="0px"
	 width="100%" viewBox="0 0 1024 1024" enable-background="new 0 0 1024 1024" xml:space="preserve">
<path fill="#000000" opacity="1.000000" stroke="none" 
	d="
M653.000000,1025.000000 
	C435.333344,1025.000000 218.166672,1025.000000 1.000000,1025.000000 
	C1.000000,683.666687 1.000000,342.333344 1.000000,1.000000 
	C342.333344,1.000000 683.666687,1.000000 1025.000000,1.000000 
	C1025.000000,342.333344 1025.000000,683.666687 1025.000000,1025.000000 
	C901.166687,1025.000000 777.333313,1025.000000 653.000000,1025.000000 
M162.000000,323.500000 
	C162.000000,309.092285 162.000000,294.684540 162.000000,280.426117 
	C128.502380,280.426117 95.934029,280.426117 63.375435,280.426117 
	C63.375435,435.744568 63.375435,590.636597 63.375435,745.662231 
	C96.319221,745.662231 128.886581,745.662231 162.000000,745.662231 
	C162.000000,605.050171 162.000000,464.775085 162.000000,323.500000 
M482.000000,621.500000 
	C482.000000,507.771301 482.000000,394.042603 482.000000,280.415527 
	C448.523712,280.415527 415.955505,280.415527 383.364868,280.415527 
	C383.364868,435.723419 383.364868,590.615479 383.364868,745.672852 
	C416.297852,745.672852 448.865204,745.672852 482.000000,745.672852 
	C482.000000,704.398865 482.000000,663.449463 482.000000,621.500000 
M223.000000,356.500000 
	C223.000000,437.229370 223.000000,517.958740 223.000000,598.585205 
	C256.476410,598.585205 289.043762,598.585205 321.634705,598.585205 
	C321.634705,492.277130 321.634705,386.384247 321.634705,280.326416 
	C288.702026,280.326416 256.135498,280.326416 223.000000,280.326416 
	C223.000000,305.598999 223.000000,330.549500 223.000000,356.500000 
M643.000000,579.500000 
	C643.000000,528.752014 643.000000,478.004059 643.000000,427.395447 
	C609.590393,427.395447 576.872192,427.395447 544.256592,427.395447 
	C544.256592,533.715576 544.256592,639.640076 544.256592,745.692932 
	C577.231323,745.692932 609.948730,745.692932 643.000000,745.692932 
	C643.000000,690.424377 643.000000,635.462158 643.000000,579.500000 
M704.000000,544.500000 
	C704.000000,611.564270 704.000000,678.628601 704.000000,745.583191 
	C737.480530,745.583191 770.047913,745.583191 802.632690,745.583191 
	C802.632690,639.273132 802.632690,533.380249 802.632690,427.328369 
	C769.697998,427.328369 737.131470,427.328369 704.000000,427.328369 
	C704.000000,466.269348 704.000000,504.884674 704.000000,544.500000 
M963.000000,318.500000 
	C963.000000,305.759979 963.000000,293.019958 963.000000,280.414246 
	C875.846191,280.414246 789.619385,280.414246 703.374756,280.414246 
	C703.374756,311.729858 703.374756,342.629669 703.374756,373.674133 
	C789.976379,373.674133 876.202881,373.674133 963.000000,373.674133 
	C963.000000,355.402832 963.000000,337.451416 963.000000,318.500000 
M543.000000,298.500854 
	C543.000000,323.568542 543.000000,348.636230 543.000000,373.586609 
	C576.814331,373.586609 609.711365,373.586609 642.630432,373.586609 
	C642.630432,342.274841 642.630432,311.377960 642.630432,280.325134 
	C609.363831,280.325134 576.467651,280.325134 543.000000,280.325134 
	C543.000000,286.261200 543.000000,291.881409 543.000000,298.500854 
z"/>
<path fill="#A10B31" opacity="1.000000" stroke="none" 
	d="
M162.000000,324.000000 
	C162.000000,464.775085 162.000000,605.050171 162.000000,745.662231 
	C128.886581,745.662231 96.319221,745.662231 63.375435,745.662231 
	C63.375435,590.636597 63.375435,435.744568 63.375435,280.426117 
	C95.934029,280.426117 128.502380,280.426117 162.000000,280.426117 
	C162.000000,294.684540 162.000000,309.092285 162.000000,324.000000 
z"/>
<path fill="#A10B31" opacity="1.000000" stroke="none" 
	d="
M482.000000,622.000000 
	C482.000000,663.449463 482.000000,704.398865 482.000000,745.672852 
	C448.865204,745.672852 416.297852,745.672852 383.364868,745.672852 
	C383.364868,590.615479 383.364868,435.723419 383.364868,280.415527 
	C415.955505,280.415527 448.523712,280.415527 482.000000,280.415527 
	C482.000000,394.042603 482.000000,507.771301 482.000000,622.000000 
z"/>
<path fill="#A10B31" opacity="1.000000" stroke="none" 
	d="
M223.000000,356.000000 
	C223.000000,330.549500 223.000000,305.598999 223.000000,280.326416 
	C256.135498,280.326416 288.702026,280.326416 321.634705,280.326416 
	C321.634705,386.384247 321.634705,492.277130 321.634705,598.585205 
	C289.043762,598.585205 256.476410,598.585205 223.000000,598.585205 
	C223.000000,517.958740 223.000000,437.229370 223.000000,356.000000 
z"/>
<path fill="#9B999F" opacity="1.000000" stroke="none" 
	d="
M643.000000,580.000000 
	C643.000000,635.462158 643.000000,690.424377 643.000000,745.692932 
	C609.948730,745.692932 577.231323,745.692932 544.256592,745.692932 
	C544.256592,639.640076 544.256592,533.715576 544.256592,427.395447 
	C576.872192,427.395447 609.590393,427.395447 643.000000,427.395447 
	C643.000000,478.004059 643.000000,528.752014 643.000000,580.000000 
z"/>
<path fill="#A10B31" opacity="1.000000" stroke="none" 
	d="
M704.000000,544.000000 
	C704.000000,504.884674 704.000000,466.269348 704.000000,427.328369 
	C737.131470,427.328369 769.697998,427.328369 802.632690,427.328369 
	C802.632690,533.380249 802.632690,639.273132 802.632690,745.583191 
	C770.047913,745.583191 737.480530,745.583191 704.000000,745.583191 
	C704.000000,678.628601 704.000000,611.564270 704.000000,544.000000 
z"/>
<path fill="#A10B31" opacity="1.000000" stroke="none" 
	d="
M963.000000,319.000000 
	C963.000000,337.451416 963.000000,355.402832 963.000000,373.674133 
	C876.202881,373.674133 789.976379,373.674133 703.374756,373.674133 
	C703.374756,342.629669 703.374756,311.729858 703.374756,280.414246 
	C789.619385,280.414246 875.846191,280.414246 963.000000,280.414246 
	C963.000000,293.019958 963.000000,305.759979 963.000000,319.000000 
z"/>
<path fill="#A10B31" opacity="1.000000" stroke="none" 
	d="
M543.000000,298.001221 
	C543.000000,291.881409 543.000000,286.261200 543.000000,280.325134 
	C576.467651,280.325134 609.363831,280.325134 642.630432,280.325134 
	C642.630432,311.377960 642.630432,342.274841 642.630432,373.586609 
	C609.711365,373.586609 576.814331,373.586609 543.000000,373.586609 
	C543.000000,348.636230 543.000000,323.568542 543.000000,298.001221 
z"/>
</svg>