<?xml version="1.0" encoding="UTF-8"?>
<svg version="1.1" xmlns="http://www.w3.org/2000/svg" width="200" height="200">
<path d="M0 0 C66 0 132 0 200 0 C200 66 200 132 200 200 C134 200 68 200 0 200 C0 134 0 68 0 0 Z " fill="#010000" transform="translate(0,0)"/>
<path d="M0 0 C10.51842584 5.81206819 17.62361224 13.83368762 21.8359375 25.1640625 C24.64129667 36.22670526 24.1230247 47.98690334 19.28515625 58.31640625 C17.98306491 60.46210606 16.83831506 62.0190308 14.8984375 63.6015625 C12.4609375 64.0390625 12.4609375 64.0390625 9.8984375 63.6015625 C7.33544994 61.73127428 6.11116214 60.5322328 5.3984375 57.4140625 C5.88500992 54.67709264 6.62402661 53.15249466 7.8984375 50.7265625 C11.23923691 43.55402183 11.22455859 35.2032638 9.05078125 27.66015625 C5.35214035 19.44791967 -1.27036579 13.55273153 -9.62890625 10.26953125 C-18.45345591 7.88564817 -25.58249427 9.43234076 -33.46484375 13.83203125 C-41.13001204 18.97621086 -44.16340149 25.7168952 -46.1015625 34.6015625 C-46.67802761 40.39947121 -45.82629971 45.02482249 -43.8515625 50.46484375 C-42.76272792 53.56688809 -42.16607618 56.31136481 -42.1015625 59.6015625 C-43.99603711 62.44327441 -45.29265822 63.35266888 -48.5390625 64.3515625 C-52.21863936 63.27461317 -53.15952909 61.19259313 -54.96484375 57.91796875 C-55.33996094 57.15355469 -55.71507813 56.38914063 -56.1015625 55.6015625 C-56.42511719 54.95058594 -56.74867187 54.29960938 -57.08203125 53.62890625 C-60.67109178 44.88373059 -60.45927984 33.53733457 -57.4765625 24.6640625 C-55.28778182 19.54154771 -52.52805384 14.98680446 -49.1015625 10.6015625 C-48.62332031 9.98539063 -48.14507812 9.36921875 -47.65234375 8.734375 C-35.4296004 -5.12011998 -16.34085351 -7.36779037 0 0 Z " fill="#F9A643" transform="translate(120.1015625,49.3984375)"/>
<path d="M0 0 C3.4375 0.8125 3.4375 0.8125 5.4375 2.8125 C6.9105306 10.76001393 3.99577148 17.90290679 -0.29296875 24.45703125 C-6.42996398 32.62744206 -14.27861568 39.03174081 -24.5625 40.8125 C-38.03770912 41.82630884 -49.16979201 40.57843233 -60.11328125 32.0546875 C-66.7825913 25.94913093 -71.05212611 18.00130125 -71.9375 9 C-71.5625 5.8125 -71.5625 5.8125 -70.5 3.8125 C-67.25725748 2.13882644 -64.97692925 2.83694879 -61.5625 3.8125 C-59.07060071 6.66038491 -58.2654698 9.7587534 -57.1875 13.3125 C-55.05446677 19.97684734 -50.44991889 23.30510151 -44.5625 26.8125 C-37.76251157 29.17295575 -26.52851105 29.19605531 -19.9375 26.375 C-12.53421671 21.69495087 -9.79104969 13.44216878 -7.51953125 5.4140625 C-5.88046602 0.9584811 -4.83279951 -0.25435787 0 0 Z " fill="#F8A543" transform="translate(91.5625,113.1875)"/>
<path d="M0 0 C3.30361776 3.51571773 4.85425008 6.83432116 6.375 11.375 C8.88139394 18.15069494 11.47567957 22.81729496 17.66796875 26.65234375 C21.73362273 28.29671728 25.0351774 28.49748207 29.375 28.4375 C30.50663574 28.42722778 30.50663574 28.42722778 31.66113281 28.41674805 C38.93436047 28.2063068 43.03575735 26.42528944 48.75 21.75 C51.90763857 17.89066397 54.11105962 13.708409 55.66796875 8.96484375 C56.3125 7.0625 56.3125 7.0625 58 4 C61.5 2.875 61.5 2.875 65 3 C66.9375 4 66.9375 4 68 6 C69.29952417 13.63470453 65.57753172 21.11131691 61.42578125 27.375 C57.3735308 32.36238516 52.75140352 35.25718649 47 38 C46.37480469 38.35320312 45.74960938 38.70640625 45.10546875 39.0703125 C36.49951967 42.87034196 22.04937318 42.36618937 13.3046875 39.23046875 C3.19486053 33.83284926 -4.35842692 23.73305749 -8 13 C-8.71439732 9.96122299 -9.19911686 7.12553128 -9 4 C-6.64001277 0.27848167 -4.35960508 -0.98091114 0 0 Z " fill="#F8A543" transform="translate(116,113)"/>
<path d="M0 0 C2.875 0.875 2.875 0.875 4.875 2.875 C5.30886285 8.15366465 4.36525428 12.70225165 2.75 17.6875 C2.52481689 18.38746094 2.29963379 19.08742188 2.06762695 19.80859375 C-1.45263545 30.27404302 -7.13379652 39.68027791 -16.80078125 45.48046875 C-22.3957826 48.24314577 -26.89863563 49.76448062 -33.125 48.875 C-35.125 47.75 -35.125 47.75 -36.125 45.875 C-36.6875 42.9375 -36.6875 42.9375 -36.125 39.875 C-32.87188179 37.03894823 -29.51795417 35.59773243 -25.5625 33.9375 C-18.67773969 30.95064419 -14.22416268 25.62383453 -11.125 18.875 C-10.02014649 15.01613663 -9.07592305 11.18611508 -8.21484375 7.265625 C-6.70333048 2.56313926 -5.18416126 -0.20736645 0 0 Z " fill="#F7A442" transform="translate(174.125,79.125)"/>
<path d="M0 0 C2.9375 1.125 2.9375 1.125 4.46875 3.7265625 C6.28027193 7.9181159 7.64534673 12.19282244 8.95507812 16.55859375 C11.3394468 24.10523637 15.38349301 29.755662 21.9375 34.125 C24.52563584 35.31236067 27.11301525 36.32717072 29.80078125 37.265625 C31.9375 38.125 31.9375 38.125 33.9375 40.125 C34.28240322 44.17761287 34.23913882 45.67254176 31.9375 49.125 C22.965179 50.42743369 16.09973378 46.77064532 8.86328125 41.66015625 C0.06451876 33.88956375 -6.41633031 17.95598578 -7.26171875 6.40234375 C-7.0625 4.125 -7.0625 4.125 -5.4375 1.75 C-3.0625 0.125 -3.0625 0.125 0 0 Z " fill="#F8A543" transform="translate(37.0625,78.875)"/>
</svg>
