<?xml version="1.0" encoding="UTF-8"?>
<svg version="1.1" xmlns="http://www.w3.org/2000/svg" width="980" height="980">
<path d="M0 0 C170.28 0 340.56 0 516 0 C516 111.54 516 223.08 516 338 C345.72 338 175.44 338 0 338 C0 226.46 0 114.92 0 0 Z " fill="#7DBA00" transform="translate(232,321)"/>
<path d="M0 0 C56.43 0 112.86 0 171 0 C171 59.4 171 118.8 171 180 C114.9 180 58.8 180 1 180 C1 173.4 1 166.8 1 160 C2.59585937 159.87882813 4.19171875 159.75765625 5.8359375 159.6328125 C29.9710712 158.08430382 29.9710712 158.08430382 53.71875 153.828125 C55.99966615 153.25246521 58.29294689 152.7245461 60.59375 152.234375 C69.97944134 150.23133832 79.10368168 147.52524333 88.25 144.625 C89.98938843 144.08045166 89.98938843 144.08045166 91.76391602 143.52490234 C99.82260471 140.92200367 107.37071305 137.65922286 115 134 C116.63068066 133.26090333 118.2633032 132.52606573 119.8984375 131.796875 C137.05169845 124.93115806 137.05169845 124.93115806 150 113 C149.28593994 112.73195557 148.57187988 112.46391113 147.83618164 112.18774414 C144.9459396 110.97736043 142.33216625 109.5651578 139.62109375 107.99609375 C138.61755859 107.42052734 137.61402344 106.84496094 136.58007812 106.25195312 C134.48040456 105.03964937 132.38144865 103.82610185 130.28320312 102.61132812 C129.28095703 102.03705078 128.27871094 101.46277344 127.24609375 100.87109375 C126.33529053 100.34443115 125.4244873 99.81776855 124.48608398 99.27514648 C122.25783703 98.13224814 120.47831073 97.31698149 118 97 C115.84871841 98.46410127 115.84871841 98.46410127 113.75 100.6875 C98.15241551 115.39574853 79.47689951 127.13417119 60 136 C58.99324219 136.46019531 57.98648438 136.92039062 56.94921875 137.39453125 C38.42121434 145.18712269 19.82511904 145.53581403 0 145 C0 140.05 0 135.1 0 130 C1.46050781 130.03480469 2.92101562 130.06960938 4.42578125 130.10546875 C18.98492397 130.44867509 18.98492397 130.44867509 33 127 C34.80404297 126.39671875 34.80404297 126.39671875 36.64453125 125.78125 C59.41299077 118.00931049 77.901508 103.60477517 95 87 C95.49709473 86.52336914 95.99418945 86.04673828 96.50634766 85.55566406 C102.28574149 80.47412894 102.28574149 80.47412894 106 74 C104.81183087 72.09575454 104.81183087 72.09575454 103 70.25 C102.13375 69.29867187 102.13375 69.29867187 101.25 68.328125 C100.5075 67.55984375 99.765 66.7915625 99 66 C98.4954126 65.47204834 97.9908252 64.94409668 97.47094727 64.40014648 C93.23787836 60.05271911 88.76650158 56.23111303 83.9375 52.5625 C83.20015625 52.00046875 82.4628125 51.4384375 81.703125 50.859375 C75.1053759 45.91958006 68.26828206 41.87188857 61 38 C60.35313232 37.60522461 59.70626465 37.21044922 59.03979492 36.80371094 C52.75881711 33.04609228 46.36229038 31.109377 39.3125 29.25 C38.21099609 28.94707031 37.10949219 28.64414062 35.97460938 28.33203125 C29.26521575 26.50992676 22.79023283 24.98476315 15.8203125 24.68359375 C14.56371826 24.62643188 14.56371826 24.62643188 13.28173828 24.56811523 C11.71915283 24.50346069 11.71915283 24.50346069 10.125 24.4375 C6.78375 24.293125 3.4425 24.14875 0 24 C0 16.08 0 8.16 0 0 Z " fill="#FDFEFC" transform="translate(434,350)"/>
<path d="M0 0 C1.22904053 0.32859009 1.22904053 0.32859009 2.48291016 0.66381836 C8.65854866 2.37035513 14.04496698 4.8068031 19.625 7.9375 C20.48673828 8.41767578 21.34847656 8.89785156 22.23632812 9.39257812 C38.33299807 18.57540164 53.27795207 30.59508899 65 45 C62.33968124 50.23846551 58.31037521 54.03257036 54.1875 58.125 C53.43138428 58.87765137 52.67526855 59.63030273 51.89624023 60.40576172 C45.32331638 66.85380899 38.42594547 72.57227515 31 78 C30.16597656 78.6290625 29.33195313 79.258125 28.47265625 79.90625 C11.52825077 92.31147198 -8.49967895 102.50779267 -29.875 102.1875 C-31.13570312 102.1865332 -31.13570312 102.1865332 -32.421875 102.18554688 C-35.93928554 102.16026197 -38.6326326 102.1224558 -42 101 C-42 110.57 -42 120.14 -42 130 C-64.88129047 128.23990073 -84.58779563 120.13100347 -102 105 C-102.80824219 104.32453125 -103.61648438 103.6490625 -104.44921875 102.953125 C-120.41271846 89.22000437 -136.68925482 68.37273171 -143 48 C-142.86010968 45.08468569 -142.07295434 44.08270189 -140.12890625 41.87890625 C-123.21248794 26.61035821 -103.36196146 12.44168781 -81.69140625 4.94140625 C-79.24452845 4.08553172 -77.01022534 3.07932573 -74.6875 1.9375 C-70.59064687 0.0746056 -66.35114344 -1.08475441 -62 -2.1875 C-61.34733154 -2.35451416 -60.69466309 -2.52152832 -60.0222168 -2.69360352 C-39.99967292 -7.54022152 -19.55915769 -5.75328613 0 0 Z " fill="#FAFCF5" transform="translate(476,379)"/>
<path d="M0 0 C6.22875 -0.061875 12.4575 -0.12375 18.875 -0.1875 C21.79255127 -0.22846802 21.79255127 -0.22846802 24.76904297 -0.27026367 C38.33629055 -0.38222885 49.62198617 0.7896683 59.75 10.6875 C66.80392375 20.22823077 67.00454293 30.5840315 66 42 C64.49837815 52.00361033 61.39185943 58.45005944 53.390625 64.703125 C46.88328332 68.23325153 40.0240253 68.27845191 32.8125 68.1953125 C31.97525391 68.19329834 31.13800781 68.19128418 30.27539062 68.18920898 C27.18353706 68.17883928 24.09176233 68.15091759 21 68.125 C10.605 68.063125 10.605 68.063125 0 68 C0 45.56 0 23.12 0 0 Z " fill="#FBFDF9" transform="translate(490,562)"/>
<path d="M0 0 C14.82765982 -0.67603312 27.7516947 0.89267855 42 5 C42.82371094 5.21906006 43.64742188 5.43812012 44.49609375 5.66381836 C50.66597061 7.36975578 56.05006019 9.80966067 61.625 12.9375 C62.48673828 13.41767578 63.34847656 13.89785156 64.23632812 14.39257812 C80.33299807 23.57540164 95.27795207 35.59508899 107 50 C104.33968124 55.23846551 100.31037521 59.03257036 96.1875 63.125 C95.05332642 64.25397705 95.05332642 64.25397705 93.89624023 65.40576172 C87.32331638 71.85380899 80.42594547 77.57227515 73 83 C72.16597656 83.6290625 71.33195312 84.258125 70.47265625 84.90625 C53.49994011 97.33219859 33.46991201 107.50651241 12.0625 107.1875 C10.78922852 107.1865332 10.78922852 107.1865332 9.49023438 107.18554688 C3.28219582 107.14109791 3.28219582 107.14109791 1 106 C1 102.04 1 98.08 1 94 C2.99160156 94.05220703 2.99160156 94.05220703 5.0234375 94.10546875 C25.47513833 94.49262825 40.56290602 88.61790782 56 75 C56.80695313 74.32453125 57.61390625 73.6490625 58.4453125 72.953125 C63.39104541 68.70506602 67.88316377 64.13661861 72.1875 59.25 C72.6817749 58.70706299 73.1760498 58.16412598 73.68530273 57.60473633 C75.73678841 55.20352787 76.97760774 53.64061331 77.08984375 50.4296875 C70.37634514 35.46267626 49.34023352 24.922771 35 19 C34.23042969 18.66355469 33.46085937 18.32710938 32.66796875 17.98046875 C22.332514 13.70735813 11.01138736 13.52500969 0 13 C0 8.71 0 4.42 0 0 Z " fill="#7FBB05" transform="translate(434,374)"/>
<path d="M0 0 C3.16690223 -0.05439336 6.33285233 -0.09386231 9.5 -0.125 C10.386875 -0.14175781 11.27375 -0.15851563 12.1875 -0.17578125 C35.71088661 -0.34874733 56.08229654 14.28143591 72.4375 29.875 C73.34371094 30.73867188 74.24992187 31.60234375 75.18359375 32.4921875 C77 35 77 35 77.10546875 37.421875 C75.60646842 40.91777684 73.37441341 43.56161682 70.875 46.375 C70.37145996 46.9522583 69.86791992 47.5295166 69.34912109 48.12426758 C67.9113902 49.76069611 66.45915609 51.38267991 65 53 C64.39671875 53.67675781 63.7934375 54.35351562 63.171875 55.05078125 C51.48485692 67.41659078 33.40926477 80.42062555 15.97265625 81.23828125 C4.56049104 81.5155934 4.56049104 81.5155934 0 79 C-0.02526945 72.3247966 -0.04283268 65.64960543 -0.05493164 58.97436523 C-0.05997325 56.70157409 -0.06680637 54.4287862 -0.07543945 52.15600586 C-0.08751261 48.89696449 -0.09322987 45.63796583 -0.09765625 42.37890625 C-0.10281754 41.35599991 -0.10797882 40.33309357 -0.11329651 39.27919006 C-0.11337204 38.33829025 -0.11344757 37.39739044 -0.11352539 36.42797852 C-0.115746 35.59524918 -0.11796661 34.76251984 -0.12025452 33.90455627 C0 32 0 32 1 31 C8.5028288 30.92102285 12.89089535 33.27953343 18.5 38.1875 C23.03051665 43.28433123 26.58136967 49.11235888 30 55 C34.06622445 53.30988226 37.15245547 50.47829582 40.4375 47.625 C41.56066024 46.65822916 42.68435046 45.69207366 43.80859375 44.7265625 C44.34468262 44.26540039 44.88077148 43.80423828 45.43310547 43.32910156 C47.58410165 41.50454201 49.78557817 39.74670283 52 38 C48.0529968 29.00633102 37.90136631 23.76908966 29.18554688 20.27197266 C19.40367694 16.59755203 10.42691144 15.30077629 0 15 C0 10.05 0 5.1 0 0 Z " fill="#FDFDFB" transform="translate(435,388)"/>
<path d="M0 0 C3.48289659 0.38325584 6.2428592 2.12033478 9.24609375 3.8359375 C10.24833984 4.40570313 11.25058594 4.97546875 12.28320312 5.5625 C13.84458008 6.4596875 13.84458008 6.4596875 15.4375 7.375 C16.47455078 7.96539062 17.51160156 8.55578125 18.58007812 9.1640625 C23.08153681 11.73136842 27.56337331 14.32190536 32 17 C30.65958335 20.15659976 29.45032846 21.68927289 26.53515625 23.48046875 C25.82705811 23.91794434 25.11895996 24.35541992 24.3894043 24.80615234 C23.62152588 25.26199707 22.85364746 25.7178418 22.0625 26.1875 C21.26561768 26.66654785 20.46873535 27.1455957 19.64770508 27.63916016 C7.05017666 35.06944994 -6.24457839 41.05793236 -20 46 C-21.23105469 46.46921875 -22.46210937 46.9384375 -23.73046875 47.421875 C-35.06430991 51.67379105 -46.64666755 54.59647224 -58.41699219 57.37890625 C-60.45460604 57.86885801 -62.48318181 58.39639603 -64.5078125 58.9375 C-81.47642365 63.37615578 -99.53163343 64.47641 -117 64 C-117 70.6 -117 77.2 -117 84 C-60.9 84 -4.8 84 53 84 C53 84.33 53 84.66 53 85 C-3.43 85 -59.86 85 -118 85 C-118 73.12 -118 61.24 -118 49 C-113.9575 48.9175 -109.915 48.835 -105.75 48.75 C-89.05812317 48.22554224 -73.29278556 46.01933242 -58 39 C-57.08903564 38.58258545 -57.08903564 38.58258545 -56.15966797 38.15673828 C-40.54333449 30.90727792 -26.38357791 21.7992809 -13 11 C-12.47438477 10.57734863 -11.94876953 10.15469727 -11.40722656 9.71923828 C-5.52554855 5.06077267 -5.52554855 5.06077267 0 0 Z " fill="#82BC0A" transform="translate(552,446)"/>
<path d="M0 0 C8.58 0 17.16 0 26 0 C28.39703861 4.79407723 30.60854346 9.27277174 32.56542969 14.20068359 C33.02560486 15.35482758 33.48578003 16.50897156 33.9598999 17.6980896 C34.68357758 19.52976181 34.68357758 19.52976181 35.421875 21.3984375 C35.93161084 22.68267119 36.44156333 23.96681891 36.95172119 25.25088501 C38.01293488 27.92432152 39.0716021 30.59874788 40.12841797 33.27392578 C41.48435539 36.70570397 42.84663049 40.13492535 44.21076584 43.56345177 C45.26154698 46.20637354 46.30905994 48.85058093 47.35556793 51.4951973 C47.856948 52.76110038 48.35933925 54.02660346 48.86275482 55.29169846 C49.56253633 57.05171162 50.25746486 58.81365203 50.95214844 60.57568359 C51.54694 62.07837296 51.54694 62.07837296 52.15374756 63.61141968 C53 66 53 66 53 68 C46.07 68 39.14 68 32 68 C31.01 64.04 30.02 60.08 29 56 C13.16 56.495 13.16 56.495 -3 57 C-3.99 60.3 -4.98 63.6 -6 67 C-7 68 -7 68 -8.85766602 68.11352539 C-10.04380493 68.10567017 -10.04380493 68.10567017 -11.25390625 68.09765625 C-12.10791016 68.09443359 -12.96191406 68.09121094 -13.84179688 68.08789062 C-14.73962891 68.07951172 -15.63746094 68.07113281 -16.5625 68.0625 C-17.46419922 68.05798828 -18.36589844 68.05347656 -19.29492188 68.04882812 C-21.53001314 68.03700225 -23.76497437 68.0205222 -26 68 C-24.57456296 62.78410865 -23.01387446 57.8303908 -20.6875 52.9375 C-18.49939612 48.29269266 -16.73306592 43.59708591 -15.0625 38.75 C-12.29326932 30.72021397 -9.21072847 22.86356379 -6 15 C-5.24830616 13.12567842 -4.49808878 11.25076336 -3.75 9.375 C-2.5 6.25 -1.25 3.125 0 0 Z " fill="#FBFDF8" transform="translate(618,562)"/>
<path d="M0 0 C10.7971875 -0.12375 10.7971875 -0.12375 21.8125 -0.25 C24.06167236 -0.28641602 26.31084473 -0.32283203 28.62817383 -0.36035156 C41.61741966 -0.48439359 52.53139469 -0.25139527 62.41015625 9.203125 C66.96532636 14.35147451 68.13195019 20.10208189 68.11352539 26.7902832 C68.11341209 28.17114861 68.11341209 28.17114861 68.11329651 29.57991028 C68.10813522 30.5602977 68.10297394 31.54068512 68.09765625 32.55078125 C68.0962413 33.56472458 68.09482635 34.57866791 68.09336853 35.62333679 C68.08778328 38.85308821 68.07523345 42.08276962 68.0625 45.3125 C68.0574831 47.50585837 68.05292052 49.69921783 68.04882812 51.89257812 C68.03781867 57.26174561 68.02056414 62.63086095 68 68 C61.73 68 55.46 68 49 68 C48.96261719 65.19371094 48.92523438 62.38742187 48.88671875 59.49609375 C48.84043709 56.76221153 48.78922763 54.02846263 48.73754883 51.29467773 C48.70440393 49.40250833 48.67633983 47.51024254 48.65356445 45.61791992 C48.61982579 42.88939546 48.56750135 40.161746 48.51171875 37.43359375 C48.50532883 36.59477158 48.4989389 35.7559494 48.49235535 34.89170837 C48.36019706 29.5483919 47.60894436 25.70440458 45 21 C38.89611171 15.83556816 38.89611171 15.83556816 19 17 C19 33.83 19 50.66 19 68 C12.73 68 6.46 68 0 68 C0 45.56 0 23.12 0 0 Z " fill="#FCFDFA" transform="translate(309,562)"/>
<path d="M0 0 C0 4.95 0 9.9 0 15 C-4.23764471 16.21075563 -8.17416112 17.2463438 -12.4375 18.125 C-26.62133759 21.64429805 -42.22428031 30.16744575 -52 41 C-48.49691572 53.15776308 -42.35064793 63.5426397 -34 73 C-33.48179687 73.62390625 -32.96359375 74.2478125 -32.4296875 74.890625 C-23.97500281 84.3224843 -11.91003844 88.82398975 0 92 C0 96.95 0 101.9 0 107 C-20.75088322 106.25889703 -37.34912186 93.22424462 -51.0625 78.8125 C-58.79376226 70.08911958 -64.51516265 60.42533378 -69.625 50 C-69.98029785 49.29407715 -70.3355957 48.5881543 -70.70166016 47.86083984 C-72.207033 44.65686264 -72.99567994 42.43470572 -73.03125 38.85546875 C-71.71258937 35.20417739 -69.63896882 32.92787307 -66.875 30.3125 C-66.34076416 29.79776123 -65.80652832 29.28302246 -65.25610352 28.75268555 C-47.95786522 12.48443009 -24.52467311 -1.53279207 0 0 Z " fill="#7FBB05" transform="translate(434,388)"/>
<path d="M0 0 C6.93 0 13.86 0 21 0 C24.62117072 11.22562923 28.08165925 22.48611789 31.375 33.8125 C31.73271484 35.02196289 32.09042969 36.23142578 32.45898438 37.47753906 C32.78962891 38.62577148 33.12027344 39.77400391 33.4609375 40.95703125 C33.75790527 41.97772705 34.05487305 42.99842285 34.36083984 44.05004883 C35.02608106 47.12037334 35.11487533 49.86833524 35 53 C35.66 53 36.32 53 37 53 C37.0825 51.783125 37.165 50.56625 37.25 49.3125 C37.97100565 42.94197062 40.0135372 37.07182969 42 31 C43.02768844 27.79383337 44.04571557 24.58463904 45.0625 21.375 C45.32144043 20.5612793 45.58038086 19.74755859 45.84716797 18.90917969 C47.53104469 13.58679164 49.08318778 8.24804814 50.45703125 2.8359375 C51 1 51 1 52 0 C53.41570123 -0.08651611 54.835595 -0.10704904 56.25390625 -0.09765625 C57.53491211 -0.09282227 57.53491211 -0.09282227 58.84179688 -0.08789062 C59.73962891 -0.07951172 60.63746094 -0.07113281 61.5625 -0.0625 C62.46419922 -0.05798828 63.36589844 -0.05347656 64.29492188 -0.04882812 C66.53001314 -0.03700225 68.76497437 -0.0205222 71 0 C69.85827537 5.53460855 68.48799612 10.84176911 66.625 16.1875 C64.97697445 20.92424441 63.51641691 25.66566995 62.1640625 30.49609375 C59.93634393 38.37398301 57.3684761 46.11984572 54.75 53.875 C54.28617218 55.25641437 53.82262924 56.63792442 53.359375 58.01953125 C52.24284693 61.34745756 51.12253343 64.67409381 50 68 C46.04907941 68.07409401 42.09842706 68.12857406 38.14697266 68.16479492 C36.14080626 68.18732251 34.13483474 68.2254357 32.12890625 68.26367188 C30.87207031 68.27333984 29.61523438 68.28300781 28.3203125 68.29296875 C26.57645264 68.31653442 26.57645264 68.31653442 24.79736328 68.34057617 C23.8742334 68.22818604 22.95110352 68.1157959 22 68 C19.69822531 64.54733796 18.77900364 61.13290329 17.6875 57.1875 C16.13095262 51.71642126 14.46666049 46.3416236 12.5 41 C10.36297263 35.17660043 8.58600808 29.30772136 6.88598633 23.34716797 C5.16289769 17.37606873 3.10990553 11.57150329 0.91796875 5.7578125 C0 3 0 3 0 0 Z " fill="#FBFCF7" transform="translate(380,562)"/>
<path d="M0 0 C0 4.29 0 8.58 0 13 C-2.35125 13.309375 -2.35125 13.309375 -4.75 13.625 C-13.36557227 15.19247831 -23.20099883 19.20688435 -29 26 C-29.70269086 34.60796304 -23.55017556 43.48499627 -18.2019043 49.81860352 C-12.86111789 55.80129783 -7.2881999 59.59252991 0 63 C0 66.96 0 70.92 0 75 C-14.8855967 73.67683585 -25.31617429 67.85638208 -35.46875 57.046875 C-42.58691027 48.47871912 -49.85863882 37.75724657 -53 27 C-50.45473556 18.35242455 -39.32350034 13.14011103 -31.95239258 9.09082031 C-21.78312301 3.65541803 -11.69502308 -0.49766056 0 0 Z " fill="#FBFDF8" transform="translate(434,404)"/>
<path d="M0 0 C6.6 0 13.2 0 20 0 C20 22.44 20 44.88 20 68 C13.4 68 6.8 68 0 68 C0 45.56 0 23.12 0 0 Z " fill="#F8FBF2" transform="translate(459,562)"/>
<path d="M0 0 C6.27 0 12.54 0 19 0 C19 22.44 19 44.88 19 68 C12.73 68 6.46 68 0 68 C0 45.56 0 23.12 0 0 Z " fill="#FCFDFA" transform="translate(565,562)"/>
<path d="M0 0 C19.5149328 -0.94528738 34.25688481 2.60560868 49.140625 15.9140625 C50.4747 17.22943552 51.74867822 18.60567002 53 20 C51.69248704 22.94793366 50.38472387 24.80665048 47.91796875 26.875 C47.31533203 27.38546875 46.71269531 27.8959375 46.09179688 28.421875 C45.46337891 28.94265625 44.83496094 29.4634375 44.1875 30 C43.57068359 30.52078125 42.95386719 31.0415625 42.31835938 31.578125 C41.1115125 32.59387709 39.89924392 33.60322895 38.68115234 34.60546875 C37.17589945 35.8540898 35.70457257 37.14334755 34.23828125 38.4375 C33.13033203 39.2109375 33.13033203 39.2109375 32 40 C28.02139802 38.67379934 27.08814569 36.21392887 25.125 32.75 C18.89516242 21.95161486 11.8289932 17.19702519 0 14 C0 9.38 0 4.76 0 0 Z " fill="#7EBA03" transform="translate(435,404)"/>
<path d="M0 0 C0 15.84 0 31.68 0 48 C-10.29787782 46.28368703 -16.85314318 39.221421 -23 31 C-31.1725698 17.80470502 -31.1725698 17.80470502 -30 12 C-21.39047627 2.70988151 -12.34705971 0 0 0 Z " fill="#7EBA03" transform="translate(434,418)"/>
<path d="M0 0 C17.2 0 17.2 0 25 6.5 C28.28414065 10.60517582 28.15761073 14.26665584 28.1875 19.4375 C28.20167969 20.54996094 28.21585938 21.66242187 28.23046875 22.80859375 C27.93842293 26.85268584 27.17663897 29.65656943 24.484375 32.73046875 C23.91203125 33.21128906 23.3396875 33.69210937 22.75 34.1875 C21.90695312 34.92033203 21.90695312 34.92033203 21.046875 35.66796875 C14.06761255 40.20981703 8.54153824 39 0 39 C0 26.13 0 13.26 0 0 Z " fill="#80BC08" transform="translate(509,577)"/>
<path d="M0 0 C0.66 0 1.32 0 2 0 C3.74650702 4.63988699 5.48666645 9.28207336 7.22167969 13.92626953 C7.90385533 15.74383537 8.59567339 17.55777616 9.2890625 19.37109375 C9.82660156 20.79615234 9.82660156 20.79615234 10.375 22.25 C10.69210937 23.08015625 11.00921875 23.9103125 11.3359375 24.765625 C12 27 12 27 12 31 C4.41 31 -3.18 31 -11 31 C-9.13124996 24.77083318 -7.25735824 18.73337096 -4.9375 12.6875 C-4.68162109 12.01138672 -4.42574219 11.33527344 -4.16210938 10.63867188 C-2.81069751 7.07775373 -1.42746429 3.53109588 0 0 Z " fill="#86BE13" transform="translate(630,576)"/>
<path d="M0 0 C0.66 0.33 1.32 0.66 2 1 C1.51789063 1.47050781 1.03578125 1.94101562 0.5390625 2.42578125 C-0.40839844 3.35970703 -0.40839844 3.35970703 -1.375 4.3125 C-2.00148438 4.92738281 -2.62796875 5.54226563 -3.2734375 6.17578125 C-5.18086607 8.08812528 -5.18086607 8.08812528 -7 11 C-7.4375 8.875 -7.4375 8.875 -7 6 C-4.87310854 3.723853 -2.4976567 1.8541278 0 0 Z " fill="#8DC222" transform="translate(411,424)"/>
</svg>
