<?xml version="1.0" encoding="UTF-8"?>
<svg version="1.1" xmlns="http://www.w3.org/2000/svg" width="200" height="200">
<path d="M0 0 C66 0 132 0 200 0 C200 66 200 132 200 200 C134 200 68 200 0 200 C0 134 0 68 0 0 Z " fill="#FCFEFE" transform="translate(0,0)"/>
<path d="M0 0 C13.57880105 -0.11625234 27.15748216 -0.20489695 40.73668098 -0.25906086 C47.04322106 -0.28506717 53.34941868 -0.32030117 59.65576172 -0.37719727 C65.75068364 -0.43183688 71.84527778 -0.46148784 77.94042587 -0.47438622 C80.25667347 -0.48356892 82.57290472 -0.50149954 84.88901138 -0.52865028 C101.6444478 -0.71711571 115.35474787 -0.20398829 128.53125 11.48046875 C141.50663342 24.72275088 147.53318884 40.38131019 147.35571289 58.88598633 C146.81088819 75.4322924 142.93175019 91.01376694 131 103 C127.48796403 105.93572712 123.84545704 108.5216873 120 111 C118.95392578 111.69996094 118.95392578 111.69996094 117.88671875 112.4140625 C113.68222206 115.06100474 113.68222206 115.06100474 111.06152344 114.82666016 C108.38859366 113.75482924 106.95545862 112.27806084 104.953125 110.2109375 C104.19 109.43363281 103.426875 108.65632813 102.640625 107.85546875 C101.45726563 106.62763672 101.45726563 106.62763672 100.25 105.375 C95.28253718 100.26679241 90.30814334 95.30069548 84.89746094 90.66162109 C81.79938505 87.94861228 78.90065206 85.04593634 76 82.125 C75.41605469 81.54492188 74.83210938 80.96484375 74.23046875 80.3671875 C70 76.12681133 70 76.12681133 70 75 C71.28632324 74.970271 71.28632324 74.970271 72.59863281 74.93994141 C75.78947642 74.86170479 78.9799474 74.77500657 82.17041016 74.68261719 C83.54955243 74.64440662 84.92879167 74.60953998 86.30810547 74.578125 C88.29416967 74.53230376 90.27991679 74.47333737 92.265625 74.4140625 C93.45961914 74.3826416 94.65361328 74.3512207 95.88378906 74.31884766 C98.83617117 74.01676281 100.55612787 73.63645396 103 72 C105.3082989 67.95498098 105.29874006 64.08664819 105.3125 59.5 C105.33763672 57.56640625 105.33763672 57.56640625 105.36328125 55.59375 C104.97926079 51.79483795 104.37276071 49.95657767 102 47 C98.76238616 44.934236 96.22337264 44.76632883 92.42456055 44.80810547 C91.30627365 44.81405731 90.18798676 44.82000916 89.03581238 44.82614136 C87.22951103 44.8464592 87.22951103 44.8464592 85.38671875 44.8671875 C82.83398317 44.86638083 80.28124763 44.86371875 77.72851562 44.859375 C73.70555894 44.86133993 69.68400755 44.87165121 65.66137695 44.92089844 C61.77727837 44.95997531 57.89591007 44.94880977 54.01171875 44.9296875 C52.81359055 44.95537811 51.61546234 44.98106873 50.38102722 45.00753784 C42.19738597 44.9134835 42.19738597 44.9134835 38.81436157 42.33258057 C37.04338097 40.30490202 35.51979639 38.21966184 34 36 C32.35538846 34.31156627 30.68920719 32.64381709 29 31 C27.9225663 29.93486475 26.84605871 28.86879224 25.77026367 27.80200195 C25.19003952 27.22823318 24.60981537 26.65446442 24.01200867 26.06330872 C21.41527876 23.49335166 18.82386379 20.91806271 16.23266602 18.3425293 C14.86202623 16.98203391 13.4896098 15.62332623 12.11547852 14.26635742 C10.1283039 12.30330991 8.14754294 10.3339891 6.16796875 8.36328125 C5.54931442 7.75494949 4.9306601 7.14661774 4.29325867 6.51985168 C2.8237249 5.0507112 1.4062258 3.52984713 0 2 C0 1.34 0 0.68 0 0 Z " fill="#02B2E0" transform="translate(26,21)"/>
<path d="M0 0 C46.2869069 -7.08642215 46.2869069 -7.08642215 64.28137589 5.38317108 C76.3181748 14.79647159 86.47883147 26.30541523 96.49719238 37.77893066 C100.92490162 42.78501675 105.51680551 47.63441236 110.09765625 52.5 C117.44225656 60.33202339 124.68989801 68.23927988 131.78503418 76.29849243 C134.99802121 79.91799693 138.1996728 82.98335689 142 86 C142 86.66 142 87.32 142 88 C91.24928975 92.53693498 91.24928975 92.53693498 79.0234375 82.57421875 C73.55241128 77.67113309 69.04213024 71.86451887 65.00561523 65.74902344 C62.92849637 62.90199259 60.81683994 61.09069707 58 59 C55.52446315 56.64522105 53.26086492 54.341823 51.1875 51.625 C49.35102229 49.42122675 47.6437727 47.77446046 45.47265625 45.93701172 C40.51034676 41.63661398 35.88597319 37.0297546 31.25 32.3828125 C29.90192261 31.0361702 29.90192261 31.0361702 28.52661133 29.662323 C26.64296472 27.77935293 24.76034254 25.8954247 22.87939453 24.00976562 C20.46396314 21.58858003 18.04399136 19.17198964 15.62271118 16.75665474 C13.30855328 14.44695946 10.99818646 12.13347992 8.6875 9.8203125 C7.81577148 8.95060822 6.94404297 8.08090393 6.04589844 7.18484497 C5.25086914 6.38666351 4.45583984 5.58848206 3.63671875 4.76611328 C2.93248779 4.06108673 2.22825684 3.35606018 1.50268555 2.62966919 C0 1 0 1 0 0 Z " fill="#03B2E0" transform="translate(30,96)"/>
<path d="M0 0 C13.75158639 -0.04629987 27.5031543 -0.08185728 41.2548027 -0.10362434 C47.63994852 -0.11407037 54.02504108 -0.12824461 60.41015625 -0.15087891 C66.56984227 -0.17257794 72.72947701 -0.18456245 78.8891983 -0.18975449 C81.24157773 -0.19345552 83.5939543 -0.20068252 85.94631195 -0.21146011 C89.23608002 -0.22593581 92.525635 -0.22797957 95.81542969 -0.22705078 C96.79222687 -0.23424133 97.76902405 -0.24143188 98.77542114 -0.24884033 C100.12151962 -0.24471634 100.12151962 -0.24471634 101.49481201 -0.24050903 C102.27280529 -0.24235262 103.05079857 -0.24419621 103.8523674 -0.24609566 C106 0 106 0 110 2 C75.35 2.33 40.7 2.66 5 3 C5 3.66 5 4.32 5 5 C6.65 5.33 8.3 5.66 10 6 C10.33 6.99 10.66 7.98 11 9 C10.34 9.66 9.68 10.32 9 11 C7.49403892 9.54782324 5.99537896 8.08807139 4.5 6.625 C3.6646875 5.81289063 2.829375 5.00078125 1.96875 4.1640625 C0 2 0 2 0 0 Z " fill="#13ACD4" transform="translate(26,21)"/>
<path d="M0 0 C0.99 0.66 1.98 1.32 3 2 C3 2.66 3 3.32 3 4 C4.01358078 4.00546844 4.01358078 4.00546844 5.04763794 4.01104736 C12.08842205 4.05289738 19.12855582 4.12226138 26.16894531 4.20751953 C28.79550671 4.23572378 31.4221529 4.25694096 34.04882812 4.27099609 C37.82726434 4.292432 41.60468163 4.33908948 45.3828125 4.390625 C46.55490265 4.39185364 47.7269928 4.39308228 48.93460083 4.39434814 C55.23098058 4.50714664 59.24386163 4.70640258 64 9 C67.52034568 13.22590019 67.45721255 17.18046386 67.375 22.4375 C67.38660156 23.17548828 67.39820313 23.91347656 67.41015625 24.67382812 C67.3843413 29.51413156 66.54381804 32.7535736 64 37 C62.515 36.505 62.515 36.505 61 36 C61.474375 35.566875 61.94875 35.13375 62.4375 34.6875 C65.67085577 31.19547577 65.19667385 27.148835 65.25 22.625 C65.27578125 21.31789063 65.3015625 20.01078125 65.328125 18.6640625 C64.98253967 14.80502629 64.41417732 12.99053497 62 10 C58.75527922 7.93104808 56.18391393 7.75804144 52.37695312 7.77636719 C51.24898315 7.77586365 50.12101318 7.77536011 48.9588623 7.77484131 C47.74525024 7.78211243 46.53163818 7.78938354 45.28125 7.796875 C42.71483866 7.78633014 40.14843206 7.77457438 37.58203125 7.76171875 C33.53290462 7.74903843 29.48415125 7.74797852 25.43505859 7.77001953 C21.52929578 7.78994531 17.62447 7.76237999 13.71875 7.734375 C12.50513794 7.74974304 11.29152588 7.76511108 10.0411377 7.78094482 C1.82851832 7.68547653 1.82851832 7.68547653 -0.67358398 5.61535645 C-1.79492188 3.95410156 -1.79492188 3.95410156 -3 1 C-2.01 0.67 -1.02 0.34 0 0 Z " fill="#1DACCF" transform="translate(66,58)"/>
<path d="M0 0 C34.98 0 69.96 0 106 0 C106 0.33 106 0.66 106 1 C72.01 1 38.02 1 3 1 C2.67 1.99 2.34 2.98 2 4 C1.34 2.68 0.68 1.36 0 0 Z " fill="#46B1CB" transform="translate(26,21)"/>
<path d="M0 0 C4.21205993 2.65741712 7.65954913 5.42077813 11.1796875 8.984375 C12.1078125 9.91894531 13.0359375 10.85351562 13.9921875 11.81640625 C14.95323683 12.79416093 15.91417296 13.77202688 16.875 14.75 C17.8589068 15.74395327 18.84327783 16.73744722 19.828125 17.73046875 C22.22334794 20.14917427 24.61376276 22.57243438 27 25 C24 26 24 26 21 25 C21 24.01 21 23.02 21 22 C20.01 21.67 19.02 21.34 18 21 C18 20.01 18 19.02 18 18 C16.68 17.67 15.36 17.34 14 17 C14 16.01 14 15.02 14 14 C12.68 13.67 11.36 13.34 10 13 C10 12.01 10 11.02 10 10 C8.63875 9.690625 8.63875 9.690625 7.25 9.375 C3.21401704 7.66746875 2.05798202 5.79935141 0 2 C0 1.34 0 0.68 0 0 Z " fill="#C5F4FA" transform="translate(89,156)"/>
<path d="M0 0 C7.74103616 -0.15213564 15.48168691 -0.25721038 23.22387695 -0.32958984 C25.85748705 -0.3597624 28.49099666 -0.40070617 31.12426758 -0.45263672 C34.90992007 -0.52542401 38.69424421 -0.55945348 42.48046875 -0.5859375 C44.2463459 -0.63238907 44.2463459 -0.63238907 46.04789734 -0.67977905 C54.06405799 -0.68307932 54.06405799 -0.68307932 56.88491821 1.37567139 C58.2824707 3.03662109 58.2824707 3.03662109 60 6 C57.97954558 5.39816251 55.97888961 4.72693904 54 4 C53.505 3.01 53.505 3.01 53 2 C37.82 1.67 22.64 1.34 7 1 C6.67 2.65 6.34 4.3 6 6 C3.97945196 4.35830472 1.97956942 2.69088222 0 1 C0 0.67 0 0.34 0 0 Z " fill="#22ADCF" transform="translate(30,96)"/>
<path d="M0 0 C0.44730469 0.433125 0.89460937 0.86625 1.35546875 1.3125 C5.1027842 4.91552816 5.1027842 4.91552816 9.9375 6.375 C10.618125 6.25125 11.29875 6.1275 12 6 C12 6.66 12 7.32 12 8 C10.02 8 8.04 8 6 8 C5.67 8.99 5.34 9.98 5 11 C4.01 11 3.02 11 2 11 C1.67 11.66 1.34 12.32 1 13 C-0.65 11.02 -2.3 9.04 -4 7 C-3.34 7 -2.68 7 -2 7 C-1.34 4.69 -0.68 2.38 0 0 Z " fill="#E7FBFC" transform="translate(129,129)"/>
<path d="M0 0 C2.21596694 0.99336449 3.80164566 1.78016722 5.44184875 3.59797668 C7.60418782 5.54364774 9.05111196 5.39610972 11.93041992 5.43237305 C12.93123093 5.45216721 13.93204193 5.47196136 14.96318054 5.49235535 C16.5804882 5.50194023 16.5804882 5.50194023 18.23046875 5.51171875 C19.33602615 5.52966995 20.44158356 5.54762115 21.5806427 5.56611633 C25.11622285 5.62035427 28.65166696 5.65415892 32.1875 5.6875 C34.58270128 5.72066109 36.97788457 5.7551496 39.37304688 5.79101562 C45.24857594 5.87608846 51.12412232 5.94438118 57 6 C56.505 4.02 56.505 4.02 56 2 C58 3.375 58 3.375 60 5 C60 5.66 60 6.32 60 7 C52.41979053 7.17766925 44.84011884 7.3001505 37.25830078 7.38452148 C34.67997167 7.41969673 32.10178191 7.46744573 29.52392578 7.52807617 C25.81507996 7.61311522 22.10808121 7.65272008 18.3984375 7.68359375 C17.24822113 7.71972275 16.09800476 7.75585175 14.91293335 7.79307556 C7.04312113 7.79692587 7.04312113 7.79692587 3.89923096 5.39505005 C2.40312882 3.66334278 1.14905453 1.97563375 0 0 Z " fill="#32B5D6" transform="translate(112,177)"/>
<path d="M0 0 C0.66 0 1.32 0 2 0 C2.55980279 12.28456112 1.11403223 23.11385019 -2 35 C-2.66 35 -3.32 35 -4 35 C-3.5416916 31.71545644 -3.07380972 28.43862332 -2.5234375 25.16796875 C-1.13666131 16.77486809 -0.44606214 8.48691919 0 0 Z " fill="#D6FBFD" transform="translate(173,71)"/>
<path d="M0 0 C0.7734375 0.433125 0.7734375 0.433125 1.5625 0.875 C4.1291548 2.13751115 4.1291548 2.13751115 7.5625 3 C11 4 11 4 14 6 C14 5.34 14 4.68 14 4 C14.99 4 15.98 4 17 4 C17 3.34 17 2.68 17 2 C18.32 2.33 19.64 2.66 21 3 C19.42652824 4.035969 17.84078454 5.05331732 16.25 6.0625 C15.36828125 6.63097656 14.4865625 7.19945312 13.578125 7.78515625 C11 9 11 9 8.90625 8.90234375 C6.53333139 7.77909744 5.06491552 6.39247601 3.25 4.5 C2.63640625 3.8709375 2.0228125 3.241875 1.390625 2.59375 C0 1 0 1 0 0 Z " fill="#1EB0D4" transform="translate(128,127)"/>
<path d="M0 0 C4.88049925 3.9419417 9.0580583 8.11950075 13 13 C10.06553114 11.58208437 7.56667591 10.01667393 5 8 C4.01 8.495 4.01 8.495 3 9 C3 7.35 3 5.7 3 4 C2.01 4 1.02 4 0 4 C0 2.68 0 1.36 0 0 Z " fill="#1CAFD2" transform="translate(90,102)"/>
<path d="M0 0 C2.62343217 2.62343217 2 3.3360952 2 7 C2.66 7 3.32 7 4 7 C4.33 8.32 4.66 9.64 5 11 C-2.48291572 4.84965831 -2.48291572 4.84965831 -5 1 C-2.625 0.375 -2.625 0.375 0 0 Z " fill="#21B3D7" transform="translate(53,113)"/>
<path d="M0 0 C4.52615993 3.67832017 8.39424999 7.41086363 12 12 C10.68 11.67 9.36 11.34 8 11 C8 10.34 8 9.68 8 9 C6.68 8.67 5.36 8.34 4 8 C3.67 6.68 3.34 5.36 3 4 C2.34 4 1.68 4 1 4 C0.67 2.68 0.34 1.36 0 0 Z " fill="#13ADD3" transform="translate(148,160)"/>
<path d="M0 0 C1.32 0 2.64 0 4 0 C2.4169423 4.2742558 -0.50568404 6.26531794 -4 9 C-4.33 8.01 -4.66 7.02 -5 6 C-4.01 5.01 -3.02 4.02 -2 3 C-1.34 3.33 -0.68 3.66 0 4 C0 2.68 0 1.36 0 0 Z " fill="#23B1D8" transform="translate(156,119)"/>
<path d="M0 0 C0.33 0.99 0.66 1.98 1 3 C-0.14453125 5.2265625 -0.14453125 5.2265625 -1.8125 7.625 C-2.35519531 8.42164062 -2.89789063 9.21828125 -3.45703125 10.0390625 C-5 12 -5 12 -7 13 C-4.29384966 3.40546697 -4.29384966 3.40546697 0 0 Z " fill="#24B0D2" transform="translate(167,106)"/>
<path d="M0 0 C2 1.375 2 1.375 4 3 C4 3.66 4 4.32 4 5 C-2.6 5 -9.2 5 -16 5 C-16 4.67 -16 4.34 -16 4 C-10.39 4 -4.78 4 1 4 C0.67 2.68 0.34 1.36 0 0 Z " fill="#44BDDB" transform="translate(168,179)"/>
<path d="M0 0 C1.98 1.65 3.96 3.3 6 5 C5.34 5.66 4.68 6.32 4 7 C1.375 6.625 1.375 6.625 -1 6 C-0.67 4.02 -0.34 2.04 0 0 Z " fill="#0CB2D7" transform="translate(131,143)"/>
<path d="M0 0 C3.11954738 0.33724836 4.6209965 0.6209965 6.875 2.875 C7.24625 3.57625 7.6175 4.2775 8 5 C7.67 5.99 7.34 6.98 7 8 C5.83035398 6.8572081 4.66435444 5.71068285 3.5 4.5625 C2.8503125 3.92441406 2.200625 3.28632813 1.53125 2.62890625 C0 1 0 1 0 0 Z " fill="#2AB7D5" transform="translate(64,130)"/>
<path d="M0 0 C2.4375 1.125 2.4375 1.125 5 3 C5.8125 6.1875 5.8125 6.1875 6 9 C2.91910327 6.22719294 1.31224548 3.93673644 0 0 Z " fill="#DCFBFD" transform="translate(89,156)"/>
<path d="M0 0 C1.98 0.66 3.96 1.32 6 2 C6.33 3.65 6.66 5.3 7 7 C5.83040013 6.02433888 4.66438823 5.044375 3.5 4.0625 C2.8503125 3.51722656 2.200625 2.97195312 1.53125 2.41015625 C1.0259375 1.94480469 0.520625 1.47945312 0 1 C0 0.67 0 0.34 0 0 Z " fill="#19AFCD" transform="translate(44,40)"/>
<path d="M0 0 C3.4375 0.8125 3.4375 0.8125 7 2 C7.33 2.99 7.66 3.98 8 5 C7.34 5.66 6.68 6.32 6 7 C4.02 4.69 2.04 2.38 0 0 Z " fill="#25B2CF" transform="translate(29,25)"/>
<path d="M0 0 C1.98 1.65 3.96 3.3 6 5 C4.125 5.625 4.125 5.625 2 6 C1.34 5.34 0.68 4.68 0 4 C0 2.68 0 1.36 0 0 Z " fill="#C3F0F8" transform="translate(59,56)"/>
<path d="M0 0 C2.97 0.495 2.97 0.495 6 1 C6 2.65 6 4.3 6 6 C3.97945196 4.35830472 1.97956942 2.69088222 0 1 C0 0.67 0 0.34 0 0 Z " fill="#32B8D8" transform="translate(72,138)"/>
</svg>
