<?xml version="1.0" encoding="UTF-8"?>
<svg version="1.1" xmlns="http://www.w3.org/2000/svg" width="200" height="200">
<path d="M0 0 C66 0 132 0 200 0 C200 66 200 132 200 200 C134 200 68 200 0 200 C0 134 0 68 0 0 Z " fill="#FAFDFD" transform="translate(0,0)"/>
<path d="M0 0 C2.3579612 0.00747254 4.71592866 0.01316067 7.07389832 0.01715088 C13.24050438 0.03232736 19.40672571 0.07153974 25.57318115 0.1159668 C31.88141681 0.15709264 38.18971542 0.1751987 44.49804688 0.1953125 C56.84652198 0.23804222 69.19471321 0.30619576 81.54296875 0.390625 C81.61323241 14.42971545 81.66584176 28.4687784 81.69840527 42.50800896 C81.71403695 49.02753692 81.73522985 55.54694644 81.76928711 62.06640625 C81.80196924 68.36228723 81.81984054 74.65805454 81.82760048 80.95401382 C81.83312807 83.35168369 81.84392203 85.74934759 81.86015892 88.14696884 C81.88205047 91.51461813 81.88493073 94.88180232 81.88354492 98.24951172 C81.89433075 99.23278946 81.90511658 100.2160672 81.91622925 101.22914124 C81.8824818 108.84679362 80.83320218 115.95527486 76.54296875 122.390625 C72.25394654 120.73961382 69.4130401 117.5048316 66.26489258 114.29199219 C65.64478302 113.6673558 65.02467346 113.04271942 64.38577271 112.39915466 C63.04078631 111.04321813 61.6980821 109.6850149 60.35740089 108.32482147 C58.22997972 106.16719547 56.09591485 104.01634993 53.95988464 101.86724854 C47.88809325 95.75575334 41.82895024 89.63177413 35.77319336 83.50439453 C32.06618633 79.75447959 28.35174393 76.01205637 24.63294029 72.27384186 C23.22232459 70.85270968 21.81462772 69.4286737 20.4100132 68.0016098 C7.4314859 53.73994564 7.4314859 53.73994564 -10.14453125 48.140625 C-21.35296838 48.34197417 -27.49261979 53.01410476 -35.12841797 60.90332031 C-40.22003062 66.60308221 -44.03428107 73.42425523 -43.76953125 81.234375 C-42.16027009 92.33827699 -35.29747352 99.41217773 -27.734375 107.04296875 C-20.65186418 114.19997933 -20.65186418 114.19997933 -19.89453125 118.828125 C-20.63647512 123.52710287 -22.12414232 125.05773607 -25.45703125 128.390625 C-28.71750754 130.02086314 -30.8350416 129.8579785 -34.45703125 129.390625 C-42.5981124 123.95528197 -49.47247848 115.5013845 -56.36328125 108.58203125 C-57.69684255 107.24660173 -59.03062713 105.91139515 -60.36462402 104.57640076 C-63.85199773 101.08523372 -67.33635615 97.59107266 -70.82006836 94.09625244 C-74.38471908 90.52131868 -77.95225042 86.94926206 -81.51953125 83.37695312 C-88.50150003 76.38430326 -95.48028272 69.38848299 -102.45703125 62.390625 C-100.9856363 58.51552187 -99.35200537 55.7244502 -96.70703125 52.515625 C-95.9903125 51.64550781 -95.27359375 50.77539062 -94.53515625 49.87890625 C-93.849375 49.05777344 -93.16359375 48.23664062 -92.45703125 47.390625 C-91.93625 46.74480469 -91.41546875 46.09898438 -90.87890625 45.43359375 C-87.82285363 41.71427696 -84.51186136 38.57139858 -80.83984375 35.46484375 C-79.01573338 33.87697063 -77.25815201 32.26755037 -75.51171875 30.59765625 C-64.27189944 19.87461025 -51.82790664 10.55119539 -37.45703125 4.390625 C-36.67040604 4.04761856 -35.88378082 3.70461212 -35.07331848 3.35121155 C-23.66269855 -0.86293612 -11.99556497 -0.11223204 0 0 Z " fill="#32B3B3" transform="translate(118.45703125,-0.390625)"/>
<path d="M0 0 C2.71678317 1.85958236 4.93859901 4.12815033 7.23632812 6.47583008 C7.92170654 7.15230087 8.60708496 7.82877167 9.31323242 8.52574158 C11.56774216 10.75899248 13.79976871 13.01328755 16.03125 15.26953125 C17.5921088 16.82888777 19.1539311 18.38728041 20.7166748 19.94474792 C23.98422711 23.20797079 27.24095354 26.48152539 30.49023438 29.76293945 C34.66274064 33.97530718 38.85942329 38.16257622 43.06421661 42.34268665 C46.29041436 45.55473043 49.50440994 48.77875943 52.71470642 52.00668907 C54.25819046 53.55603551 55.80528341 55.10179511 57.35597229 56.64393044 C59.51602235 58.79602356 61.65934957 60.96346756 63.79882812 63.13598633 C64.76955261 64.09388565 64.76955261 64.09388565 65.7598877 65.07113647 C66.3373877 65.66418076 66.9148877 66.25722504 67.5098877 66.86824036 C68.2719389 67.63506748 68.2719389 67.63506748 69.04938507 68.41738605 C70 70 70 70 69.76500702 72.04290295 C66.42412997 80.58977959 57.18759251 88.32846171 51 95 C50.46246094 95.59167969 49.92492187 96.18335938 49.37109375 96.79296875 C35.20540632 111.73972165 13.13565072 128.24610575 -8.23286057 129.08796883 C-10.95966376 129.12300363 -13.68460879 129.12363708 -16.41162109 129.11352539 C-17.44637573 129.11367142 -18.48113037 129.11381744 -19.54724121 129.1139679 C-22.95599488 129.1132731 -26.36469341 129.10550097 -29.7734375 129.09765625 C-32.14140798 129.09579053 -34.50937885 129.09436735 -36.87734985 129.09336853 C-43.10143098 129.08955547 -49.32548866 129.07973551 -55.54956055 129.06866455 C-61.90413089 129.0584244 -68.25870503 129.05386533 -74.61328125 129.04882812 C-87.07553111 129.03811216 -99.53776361 129.02105027 -112 129 C-112.07026651 115.09129371 -112.12287439 101.18261519 -112.15543652 87.27376747 C-112.17106761 80.81477308 -112.19225942 74.35589825 -112.22631836 67.89697266 C-112.25900261 61.65944626 -112.27687224 55.42203461 -112.28463173 49.18442917 C-112.29015894 46.80908783 -112.30095215 44.4337525 -112.31719017 42.05846024 C-112.33908457 38.72194273 -112.34196186 35.38589461 -112.34057617 32.04931641 C-112.351362 31.0753894 -112.36214783 30.1014624 -112.3732605 29.09802246 C-112.34426355 22.61184056 -111.18564967 17.10310445 -109 11 C-106 11 -106 11 -104.36181641 12.29760742 C-103.78093262 12.89420166 -103.20004883 13.4907959 -102.6015625 14.10546875 C-101.95703125 14.75966797 -101.3125 15.41386719 -100.6484375 16.08789062 C-99.98070313 16.78076172 -99.31296875 17.47363281 -98.625 18.1875 C-97.635 19.19780273 -97.635 19.19780273 -96.625 20.22851562 C-95.33113019 21.54944845 -94.03973117 22.87280657 -92.75097656 24.19873047 C-88.94865229 28.11026818 -85.08023556 31.87879094 -81 35.5 C-73.61029412 42.12867647 -73.61029412 42.12867647 -71 45 C-71 45.66 -71 46.32 -71 47 C-70.40354675 47.26982697 -69.80709351 47.53965393 -69.19256592 47.81765747 C-67.00698692 48.9962323 -65.6364066 50.1433148 -63.91894531 51.91748047 C-63.05719696 52.79882156 -63.05719696 52.79882156 -62.17803955 53.69796753 C-61.56756775 54.33131012 -60.95709595 54.96465271 -60.328125 55.6171875 C-59.01070155 56.95991499 -57.69298381 58.30235379 -56.375 59.64453125 C-54.31298647 61.75603702 -52.25429241 63.87056744 -50.20117188 65.99072266 C-48.21082178 68.04189433 -46.20787797 70.08010385 -44.203125 72.1171875 C-43.60075012 72.74648163 -42.99837524 73.37577576 -42.37774658 74.0241394 C-37.51972825 78.93807269 -31.58406136 83.517104 -24.375 83.6875 C-15.8964225 83.32057547 -6.89701382 78.23935418 -0.875 72.4375 C5.76082301 64.96593102 8.66070211 58.4459354 8.4140625 48.45703125 C7.02627377 36.87030459 -1.03135466 29.26118878 -8.85546875 21.34765625 C-12.21366917 17.88763312 -14.72594147 14.87925846 -15.4375 10 C-14.88706309 6.2255755 -13.63890729 4.71221027 -11 2 C-10.401875 1.38125 -9.80375 0.7625 -9.1875 0.125 C-5.76714461 -1.63403991 -3.69046904 -0.9430874 0 0 Z " fill="#064345" transform="translate(112,71)"/>
<path d="M0 0 C30.36 0 60.72 0 92 0 C92 31.68 92 63.36 92 96 C91.67 96 91.34 96 91 96 C90.70609375 94.5459375 90.70609375 94.5459375 90.40625 93.0625 C87.37411108 79.10868802 81.62238531 66.44001982 73 55 C72.40316406 54.20078125 71.80632812 53.4015625 71.19140625 52.578125 C53.150126 29.52348332 28.7030601 8.6583002 0 1 C0 0.67 0 0.34 0 0 Z " fill="#FCFEFE" transform="translate(108,0)"/>
<path d="M0 0 C1.65685974 3.31371947 2.93060613 6.4671002 4.1875 9.9375 C16.99271199 43.31318372 46.01339499 69.85566149 77.85595703 85.05371094 C82.10032093 86.92699202 86.43606851 88.20002999 91 89 C91 89.33 91 89.66 91 90 C60.97 90 30.94 90 0 90 C0 60.3 0 30.6 0 0 Z " fill="#FCFDFD" transform="translate(0,110)"/>
<path d="M0 0 C0 0.99 0 1.98 0 3 C-0.66 3 -1.32 3 -2 3 C-1.814375 3.78375 -1.62875 4.5675 -1.4375 5.375 C-1 8 -1 8 -2 10 C-1.34 10.33 -0.68 10.66 0 11 C-4.455 12.485 -4.455 12.485 -9 14 C-8.835 14.94875 -8.67 15.8975 -8.5 16.875 C-8 20 -8 20 -8 22 C-7.21625 21.814375 -6.4325 21.62875 -5.625 21.4375 C-3 21 -3 21 -1 22 C-1.33 24.64 -1.66 27.28 -2 30 C-1.4225 29.814375 -0.845 29.62875 -0.25 29.4375 C2.23144049 28.95499768 3.60988556 29.28296567 6 30 C6.66 30 7.32 30 8 30 C8 30.66 8 31.32 8 32 C6.68 32.66 5.36 33.32 4 34 C6.6598561 37.44216672 9.90288286 37.99504674 14 39 C14 39.99 14 40.98 14 42 C14.66 42 15.32 42 16 42 C16 42.99 16 43.98 16 45 C17.2065625 45.185625 17.2065625 45.185625 18.4375 45.375 C19.283125 45.58125 20.12875 45.7875 21 46 C21.33 46.66 21.66 47.32 22 48 C22.99 48.495 22.99 48.495 24 49 C24 50.32 24 51.64 24 53 C26.31 53 28.62 53 31 53 C31 54.32 31 55.64 31 57 C31.66 57.66 32.32 58.32 33 59 C32.34 59 31.68 59 31 59 C32.2488427 60.5833253 32.2488427 60.5833253 34 62 C35.32 62 36.64 62 38 62 C38.66 63.65 39.32 65.3 40 67 C39.34 67 38.68 67 38 67 C38 67.66 38 68.32 38 69 C38.763125 69.04125 39.52625 69.0825 40.3125 69.125 C43 70 43 70 44.4375 72.75 C44.953125 73.8225 45.46875 74.895 46 76 C47.88835679 77.87862299 49.86655864 79.38806653 52 81 C52.99 79.515 52.99 79.515 54 78 C54.66 78 55.32 78 56 78 C55.67 79.98 55.34 81.96 55 84 C55.66 84 56.32 84 57 84 C57.04125 83.236875 57.0825 82.47375 57.125 81.6875 C58 79 58 79 61.0625 77.1875 C62.5165625 76.5996875 62.5165625 76.5996875 64 76 C63.01 73.69 62.02 71.38 61 69 C60.01 69 59.02 69 58 69 C57.67 67.02 57.34 65.04 57 63 C58.12894876 63.93274109 59.25300876 64.87140122 60.375 65.8125 C61.00148438 66.33457031 61.62796875 66.85664062 62.2734375 67.39453125 C64.9850909 69.91600081 65.9509351 71.62850859 66.4375 75.3125 C65.86060851 80.17487109 64.41861299 81.58138701 61 85 C57.73952371 86.63023814 55.62198965 86.4673535 52 86 C43.85891885 80.56465697 36.98455277 72.1107595 30.09375 65.19140625 C28.7601887 63.85597673 27.42640412 62.52077015 26.09240723 61.18577576 C22.60503352 57.69460872 19.1206751 54.20044766 15.63696289 50.70562744 C12.07231217 47.13069368 8.50478083 43.55863706 4.9375 39.98632812 C-2.04446878 32.99367826 -9.02325147 25.99785799 -16 19 C-14.50594518 15.05682999 -12.80625464 12.21065425 -10.125 8.9375 C-9.44695313 8.10089844 -8.76890625 7.26429687 -8.0703125 6.40234375 C-2.55284553 0 -2.55284553 0 0 0 Z " fill="#259795" transform="translate(32,43)"/>
<path d="M0 0 C25.23891314 9.33431976 47.51294114 35.0919533 62 57 C61.505 57.99 61.505 57.99 61 59 C56.2454283 54.62078922 56.2454283 54.62078922 54.9375 51.3125 C54.23958469 48.84869133 54.23958469 48.84869133 52.0625 48.0625 C49.02425158 46.49734172 48.48205754 44.02339739 47 41 C44.60414714 38.35412766 44.60414714 38.35412766 42 36 C41.34 35.278125 40.68 34.55625 40 33.8125 C37.78731645 31.80725553 35.81489475 30.93829825 33 30 C33 28.35 33 26.7 33 25 C31.88625 24.773125 30.7725 24.54625 29.625 24.3125 C26 23 26 23 24.6875 20.4375 C24.3471875 19.2309375 24.3471875 19.2309375 24 18 C23.34 17.67 22.68 17.34 22 17 C22 16.34 22 15.68 22 15 C21.01 15 20.02 15 19 15 C19 14.34 19 13.68 19 13 C18.01 13.66 17.02 14.32 16 15 C14.0103005 15.39013716 12.00980131 15.73202649 10 16 C10 15.01 10 14.02 10 13 C10.99 13 11.98 13 13 13 C12.34 11.35 11.68 9.7 11 8 C10.278125 8.103125 9.55625 8.20625 8.8125 8.3125 C4.82682804 7.86964756 3.5172078 6.00666487 1 3 C0.67 2.01 0.34 1.02 0 0 Z " fill="#5CC6C4" transform="translate(127,8)"/>
<path d="M0 0 C0.8971875 0.309375 0.8971875 0.309375 1.8125 0.625 C0.1625 1.945 -1.4875 3.265 -3.1875 4.625 C-2.98125 5.346875 -2.775 6.06875 -2.5625 6.8125 C-2.12797789 10.07141585 -2.77069331 11.70804504 -4.1875 14.625 C-1.65961993 17.42372437 0.01661134 19.08273019 3.8125 19.625 C3.8125 20.615 3.8125 21.605 3.8125 22.625 C4.79278616 23.97289347 5.79221135 25.30712715 6.8125 26.625 C6.8125 27.285 6.8125 27.945 6.8125 28.625 C8.4625 27.965 10.1125 27.305 11.8125 26.625 C11.4825 29.595 11.1525 32.565 10.8125 35.625 C7.20403676 32.05583038 3.69265734 28.41664755 0.25 24.6875 C-0.45286133 23.93823242 -0.45286133 23.93823242 -1.16992188 23.17382812 C-8.81883995 14.8830428 -8.81883995 14.8830428 -9.6875 9.5625 C-9.06243585 5.89024813 -7.76308672 4.27417491 -5.1875 1.625 C-2.1875 -0.375 -2.1875 -0.375 0 0 Z " fill="#193C3C" transform="translate(106.1875,71.375)"/>
<path d="M0 0 C4.88049925 3.9419417 9.0580583 8.11950075 13 13 C12.34 13 11.68 13 11 13 C10.67 13.66 10.34 14.32 10 15 C9.67 13.68 9.34 12.36 9 11 C4.96901069 9.84828877 2.70658609 9.99643995 -1 12 C-1.66 12.99 -2.32 13.98 -3 15 C-3.3152595 9.01006953 -2.68219822 5.36439644 0 0 Z " fill="#0E3032" transform="translate(4,81)"/>
<path d="M0 0 C0 0.99 0 1.98 0 3 C-0.66 3 -1.32 3 -2 3 C-1.814375 3.78375 -1.62875 4.5675 -1.4375 5.375 C-1 8 -1 8 -2 10 C-1.34 10.33 -0.68 10.66 0 11 C-1.15628906 11.29003906 -1.15628906 11.29003906 -2.3359375 11.5859375 C-3.33882812 11.84632812 -4.34171875 12.10671875 -5.375 12.375 C-6.37273438 12.63023438 -7.37046875 12.88546875 -8.3984375 13.1484375 C-11.53825442 14.17618538 -12.58977532 15.22513116 -14.125 18.125 C-14.41375 18.74375 -14.7025 19.3625 -15 20 C-15.33 19.01 -15.66 18.02 -16 17 C-14.3046875 14.2578125 -14.3046875 14.2578125 -11.875 11.125 C-11.08867187 10.09632812 -10.30234375 9.06765625 -9.4921875 8.0078125 C-2.85714286 0 -2.85714286 0 0 0 Z " fill="#28A29F" transform="translate(32,43)"/>
<path d="M0 0 C1.32 0 2.64 0 4 0 C3.55244569 3.13288016 3.0163961 5.9546696 1.9375 8.9375 C0.09818892 14.94591619 1.14294659 20.89349446 2 27 C1.34 27 0.68 27 0 27 C0 26.01 0 25.02 0 24 C-2.44496043 22.28288757 -2.44496043 22.28288757 -5 21 C-4.67 19.35 -4.34 17.7 -4 16 C-3.34 16 -2.68 16 -2 16 C-1.93941406 15.01257813 -1.87882812 14.02515625 -1.81640625 13.0078125 C-1.73261719 11.72648437 -1.64882812 10.44515625 -1.5625 9.125 C-1.48128906 7.84882812 -1.40007812 6.57265625 -1.31640625 5.2578125 C-1 2 -1 2 0 0 Z " fill="#399F9B" transform="translate(74,64)"/>
<path d="M0 0 C-3.12968842 3.73155158 -5.25122982 4.36683064 -10 5 C-10.33 5.66 -10.66 6.32 -11 7 C-12.19625 6.9175 -13.3925 6.835 -14.625 6.75 C-19.13401816 6.71824635 -21.31669778 8.43770281 -25 11 C-28.375 11.25 -28.375 11.25 -31 11 C-22.90891398 4.52713118 -10.50627148 -0.82944249 0 0 Z " fill="#54C0BD" transform="translate(100,0)"/>
<path d="M0 0 C0.66 0.33 1.32 0.66 2 1 C1.01 1.66 0.02 2.32 -1 3 C-0.67 3.763125 -0.34 4.52625 0 5.3125 C1 8 1 8 1 11 C-1.97 11 -4.94 11 -8 11 C-8 10.34 -8 9.68 -8 9 C-8.99 9.495 -8.99 9.495 -10 10 C-10.65555119 12.52733235 -10.65555119 12.52733235 -11 15 C-11.99 14.67 -12.98 14.34 -14 14 C-12.15277089 8.12245283 -8.47710533 4.75604198 -3.3125 1.625 C-2.219375 1.08875 -1.12625 0.5525 0 0 Z " fill="#28ACAB" transform="translate(47,29)"/>
<path d="M0 0 C-0.04125 0.928125 -0.0825 1.85625 -0.125 2.8125 C-0.27136339 6.15809719 -0.27136339 6.15809719 2 9 C1.01 9.495 1.01 9.495 0 10 C-1.6748823 8.90833564 -3.33973123 7.80126363 -5 6.6875 C-6.3921875 5.76517578 -6.3921875 5.76517578 -7.8125 4.82421875 C-8.534375 4.22222656 -9.25625 3.62023437 -10 3 C-10 2.01 -10 1.02 -10 0 C-6.42355152 -1.2380014 -3.66305234 -0.74926071 0 0 Z " fill="#04484A" transform="translate(63,178)"/>
<path d="M0 0 C7.63037257 0.44884545 17.46711897 2.46711897 23 8 C22.25234375 7.9278125 21.5046875 7.855625 20.734375 7.78125 C19.74953125 7.6884375 18.7646875 7.595625 17.75 7.5 C16.77546875 7.4071875 15.8009375 7.314375 14.796875 7.21875 C12.53697847 7.04199832 10.26679807 7 8 7 C8 6.01 8 5.02 8 4 C7.236875 3.896875 6.47375 3.79375 5.6875 3.6875 C2.82940576 2.95635961 1.84257115 2.23048087 0 0 Z " fill="#54C6C4" transform="translate(104,0)"/>
<path d="M0 0 C1.32 0.99 2.64 1.98 4 3 C2 5 2 5 -1.125 5.125 C-2.07375 5.08375 -3.0225 5.0425 -4 5 C-4.33 6.65 -4.66 8.3 -5 10 C-5.86625 10.226875 -6.7325 10.45375 -7.625 10.6875 C-11.61778814 12.24025095 -13.84248305 14.14319895 -17 17 C-17.66 16.67 -18.32 16.34 -19 16 C-6.51480638 4.29384966 -6.51480638 4.29384966 0 0 Z " fill="#47B3B1" transform="translate(60,16)"/>
<path d="M0 0 C2.4375 0.375 2.4375 0.375 5 1 C5.33 1.66 5.66 2.32 6 3 C6.66 3.33 7.32 3.66 8 4 C8 5.32 8 6.64 8 8 C10.31 8 12.62 8 15 8 C14.67 9.98 14.34 11.96 14 14 C10.85808576 12.46395304 7.91403262 10.94268841 5 9 C5 8.34 5 7.68 5 7 C4.01 6.67 3.02 6.34 2 6 C0 3 0 3 0 0 Z " fill="#0F9795" transform="translate(48,88)"/>
<path d="M0 0 C1.12894876 0.93274109 2.25300876 1.87140122 3.375 2.8125 C4.00148438 3.33457031 4.62796875 3.85664062 5.2734375 4.39453125 C8.01407544 6.9429525 8.95459326 8.64971941 9.4375 12.375 C8.89510789 16.86910608 7.42247116 18.17646129 4 21 C3.67 20.01 3.34 19.02 3 18 C3.99 18 4.98 18 6 18 C5.01 17.01 4.02 16.02 3 15 C4.32 14.34 5.64 13.68 7 13 C6.01 10.69 5.02 8.38 4 6 C3.01 6 2.02 6 1 6 C0.67 4.02 0.34 2.04 0 0 Z " fill="#239593" transform="translate(89,106)"/>
<path d="M0 0 C4.8363543 3.10256691 8.17799101 5.29103849 10 11 C9.1875 13.375 9.1875 13.375 8 15 C7.67 13.02 7.34 11.04 7 9 C4.03 8.505 4.03 8.505 1 8 C1 6 1 4 1 2 C0.34 1.67 -0.32 1.34 -1 1 C-0.67 0.67 -0.34 0.34 0 0 Z " fill="#133535" transform="translate(17,94)"/>
<path d="M0 0 C0.66 0.33 1.32 0.66 2 1 C-3.02065304 5.63342182 -8.07852282 9.58255173 -14 13 C-13.75 10.625 -13.75 10.625 -13 8 C-11 6.875 -11 6.875 -9 6 C-8.67 5.01 -8.34 4.02 -8 3 C-7.236875 2.87625 -6.47375 2.7525 -5.6875 2.625 C-2.79732864 2.11897208 -2.79732864 2.11897208 0 0 Z " fill="#175355" transform="translate(151,174)"/>
<path d="M0 0 C0.66 0.33 1.32 0.66 2 1 C-8.37357631 14.81776765 -8.37357631 14.81776765 -14 20 C-14.66 19.67 -15.32 19.34 -16 19 C-15.43152344 18.38253906 -14.86304688 17.76507813 -14.27734375 17.12890625 C-9.2433136 11.60744079 -4.48772121 5.9740083 0 0 Z " fill="#E6F6F6" transform="translate(181,144)"/>
<path d="M0 0 C4.82675589 2.41337795 7.69984002 5.86062408 11 10 C9.68 10 8.36 10 7 10 C7 9.34 7 8.68 7 8 C4.69 7.67 2.38 7.34 0 7 C0 4.69 0 2.38 0 0 Z " fill="#264848" transform="translate(26,103)"/>
<path d="M0 0 C0.33 1.32 0.66 2.64 1 4 C0.34 4 -0.32 4 -1 4 C-1.08378906 4.59425781 -1.16757813 5.18851563 -1.25390625 5.80078125 C-2.21858711 8.64431699 -3.50370409 9.47548081 -5.9375 11.1875 C-7.00291016 11.95126953 -7.00291016 11.95126953 -8.08984375 12.73046875 C-10 14 -10 14 -12 15 C-12.33 14.01 -12.66 13.02 -13 12 C-12.48050781 11.63648438 -11.96101563 11.27296875 -11.42578125 10.8984375 C-6.90269987 7.63780582 -3.37935811 4.43540752 0 0 Z " fill="#1A4A4C" transform="translate(115,138)"/>
<path d="M0 0 C0.66 0.66 1.32 1.32 2 2 C1.811672 7.74400414 1.11754815 10.74962772 -3 15 C-3.3152595 9.01006953 -2.68219822 5.36439644 0 0 Z " fill="#1C3C3B" transform="translate(4,81)"/>
<path d="M0 0 C0.99 0.66 1.98 1.32 3 2 C1.55367187 1.94779297 1.55367187 1.94779297 0.078125 1.89453125 C-1.18515625 1.86746094 -2.4484375 1.84039062 -3.75 1.8125 C-5.00296875 1.77769531 -6.2559375 1.74289063 -7.546875 1.70703125 C-11.24111619 2.02045669 -12.27543579 2.66465925 -15 5 C-18.25 5.1875 -18.25 5.1875 -21 5 C-15.93408188 -1.19167771 -7.32690611 -0.71894605 0 0 Z " fill="#E0FCFC" transform="translate(114,47)"/>
<path d="M0 0 C0.86625 0.391875 1.7325 0.78375 2.625 1.1875 C3.676875 1.331875 4.72875 1.47625 5.8125 1.625 C7.2046875 1.9034375 7.2046875 1.9034375 8.625 2.1875 C9.615 3.6725 9.615 3.6725 10.625 5.1875 C4.57698929 4.63768084 -0.68101106 3.28320426 -6.375 1.1875 C-2.671875 -0.9140625 -2.671875 -0.9140625 0 0 Z " fill="#255D60" transform="translate(84.375,194.8125)"/>
<path d="M0 0 C0.99 0.66 1.98 1.32 3 2 C1.63629701 4.99220268 0.05091917 7.29026529 -2.125 9.75 C-2.93324219 10.67039063 -2.93324219 10.67039063 -3.7578125 11.609375 C-4.16773438 12.06828125 -4.57765625 12.5271875 -5 13 C-5.33 12.01 -5.66 11.02 -6 10 C-5.34 10 -4.68 10 -4 10 C-3.87882813 9.36191406 -3.75765625 8.72382813 -3.6328125 8.06640625 C-3.46523437 7.24011719 -3.29765625 6.41382813 -3.125 5.5625 C-2.88136719 4.32693359 -2.88136719 4.32693359 -2.6328125 3.06640625 C-2.42398438 2.38449219 -2.21515625 1.70257813 -2 1 C-1.34 0.67 -0.68 0.34 0 0 Z " fill="#145151" transform="translate(172,149)"/>
<path d="M0 0 C0.66 0.66 1.32 1.32 2 2 C-2.33333333 6.33333333 -6.66666667 10.66666667 -11 15 C-10.11917098 9.5388601 -10.11917098 9.5388601 -9 7 C-5.875 5.5 -5.875 5.5 -3 5 C-3 4.34 -3 3.68 -3 3 C-1.5 1.375 -1.5 1.375 0 0 Z " fill="#40A9A9" transform="translate(89,51)"/>
<path d="M0 0 C3.30616284 3.80208727 7 9.83581485 7 15 C6.01 15.33 5.02 15.66 4 16 C3.71125 14.9275 3.4225 13.855 3.125 12.75 C2.19015472 9.19285195 2.19015472 9.19285195 0.875 6.875 C-0.23518586 4.49603029 -0.14403872 2.59269691 0 0 Z " fill="#5AC1BE" transform="translate(189,67)"/>
<path d="M0 0 C2.31 0.66 4.62 1.32 7 2 C7.33 3.65 7.66 5.3 8 7 C9.32 7.33 10.64 7.66 12 8 C11.67 8.66 11.34 9.32 11 10 C7.81326038 8.59698853 5.67778594 6.92234929 3.25 4.4375 C2.63640625 3.81746094 2.0228125 3.19742188 1.390625 2.55859375 C0 1 0 1 0 0 Z " fill="#48ABA7" transform="translate(184,112)"/>
<path d="M0 0 C0.99 0.33 1.98 0.66 3 1 C3 1.66 3 2.32 3 3 C4.65 2.34 6.3 1.68 8 1 C7.67 3.97 7.34 6.94 7 10 C4.66666667 7.66666667 2.33333333 5.33333333 0 3 C0 2.01 0 1.02 0 0 Z " fill="#1A4342" transform="translate(110,97)"/>
<path d="M0 0 C1.32 0 2.64 0 4 0 C3.125 5.75 3.125 5.75 2 8 C1.01 8 0.02 8 -1 8 C-1.125 2.25 -1.125 2.25 0 0 Z " fill="#28A6A6" transform="translate(74,64)"/>
<path d="M0 0 C2.71373838 0.97996108 4.81626178 1.84966873 7.0625 3.6875 C8.92712377 5.26599328 8.92712377 5.26599328 11.25 4.6875 C12.11625 4.3471875 12.11625 4.3471875 13 4 C12.67 5.65 12.34 7.3 12 9 C7.09198451 7.51272258 3.59508707 4.55364515 0 1 C0 0.67 0 0.34 0 0 Z " fill="#47B8B5" transform="translate(123,52)"/>
<path d="M0 0 C1.25 1.75 1.25 1.75 1.25 4.75 C0.59 5.41 -0.07 6.07 -0.75 6.75 C-2.45884005 5.12660195 -4.12446717 3.45680947 -5.75 1.75 C-5.75 1.09 -5.75 0.43 -5.75 -0.25 C-2.22297297 -1.58783784 -2.22297297 -1.58783784 0 0 Z " fill="#0D3737" transform="translate(109.75,91.25)"/>
<path d="M0 0 C0 3 0 3 -1.390625 4.7890625 C-2.31101562 5.69785156 -2.31101562 5.69785156 -3.25 6.625 C-3.85328125 7.23601563 -4.4565625 7.84703125 -5.078125 8.4765625 C-7.09363101 10.0742197 -8.48788161 10.58872398 -11 11 C-7.6189962 6.86378916 -4.33409466 3.18683431 0 0 Z " fill="#DFFBFA" transform="translate(92,52)"/>
<path d="M0 0 C0.99 0.33 1.98 0.66 3 1 C2.67 3.64 2.34 6.28 2 9 C1.67 8.01 1.34 7.02 1 6 C0.01 6 -0.98 6 -2 6 C-2.33 4.68 -2.66 3.36 -3 2 C-2.01 1.34 -1.02 0.68 0 0 Z " fill="#169B9D" transform="translate(28,64)"/>
<path d="M0 0 C0 0.99 0 1.98 0 3 C2.44496043 4.71711243 2.44496043 4.71711243 5 6 C4.34 6.66 3.68 7.32 3 8 C0.03 6.02 -2.94 4.04 -6 2 C-2 0 -2 0 0 0 Z " fill="#194F4F" transform="translate(60,180)"/>
<path d="M0 0 C0.33 0 0.66 0 1 0 C1.33 4.62 1.66 9.24 2 14 C-0.475 13.01 -0.475 13.01 -3 12 C-2.67 10.35 -2.34 8.7 -2 7 C-1.34 7 -0.68 7 0 7 C0 4.69 0 2.38 0 0 Z " fill="#1B9F9F" transform="translate(72,73)"/>
<path d="M0 0 C7.66742597 5.96583144 7.66742597 5.96583144 9 11 C8.01 11 7.02 11 6 11 C5.34 9.35 4.68 7.7 4 6 C3.01 6 2.02 6 1 6 C0.67 4.02 0.34 2.04 0 0 Z " fill="#2E9997" transform="translate(89,106)"/>
<path d="M0 0 C3.28788824 3.11016455 5.83735988 6.01618925 8 10 C7.01 10 6.02 10 5 10 C3.66666667 8 2.33333333 6 1 4 C0.01 4 -0.98 4 -2 4 C-1.34 2.68 -0.68 1.36 0 0 Z " fill="#2C9B9D" transform="translate(77,92)"/>
<path d="M0 0 C1.20628008 2.33214148 2.1654738 4.49642139 3 7 C0.50907189 8.24546405 -0.41080733 7.7767578 -3 7 C-2.25 2.25 -2.25 2.25 0 0 Z " fill="#169C99" transform="translate(21,56)"/>
<path d="M0 0 C1.91302307 3.26613695 2.35674661 5.99445248 2.625 9.75 C2.69976562 10.73484375 2.77453125 11.7196875 2.8515625 12.734375 C2.92503906 13.85585937 2.92503906 13.85585937 3 15 C0.9375 13.125 0.9375 13.125 -1 10 C-1.0571754 6.59546453 -0.59785505 3.34668858 0 0 Z " fill="#59BDBE" transform="translate(197,86)"/>
<path d="M0 0 C4.62 0 9.24 0 14 0 C14 0.33 14 0.66 14 1 C13.3709375 1.04898438 12.741875 1.09796875 12.09375 1.1484375 C6.53086686 1.63435199 1.38006948 2.50553626 -4 4 C-4 3.34 -4 2.68 -4 2 C-2.68 2 -1.36 2 0 2 C0 1.34 0 0.68 0 0 Z " fill="#4DB3B1" transform="translate(100,45)"/>
<path d="M0 0 C-1.4375 2.0625 -1.4375 2.0625 -4 4 C-7.07583023 4.05823431 -9.98735648 3.59222907 -13 3 C-8.54370064 0.02913376 -5.32064558 -0.12092376 0 0 Z " fill="#61C9C7" transform="translate(100,0)"/>
<path d="M0 0 C-2.36292656 2.52588702 -3.66462511 3.88820837 -7 5 C-7.33 3.35 -7.66 1.7 -8 0 C-4.71303767 -0.79953138 -3.28976808 -1.09658936 0 0 Z " fill="#125457" transform="translate(136,187)"/>
<path d="M0 0 C1.32 0 2.64 0 4 0 C4.66 1.65 5.32 3.3 6 5 C5.34 5 4.68 5 4 5 C3.67 5.66 3.34 6.32 3 7 C2.01 6.34 1.02 5.68 0 5 C-0.1875 2.375 -0.1875 2.375 0 0 Z " fill="#0E9592" transform="translate(66,105)"/>
<path d="M0 0 C1.14926266 0.95421808 2.29430541 1.91352045 3.4375 2.875 C4.07558594 3.40867187 4.71367188 3.94234375 5.37109375 4.4921875 C7 6 7 6 8 8 C5.2980567 7.63487253 3.41609148 7.30130763 1.1875 5.6875 C0 4 0 4 0 0 Z " fill="#153436" transform="translate(112,72)"/>
<path d="M0 0 C0.99 0.33 1.98 0.66 3 1 C2.030625 1.721875 1.06125 2.44375 0.0625 3.1875 C-2.29913506 5.13237593 -2.93412331 5.7882535 -3.875 8.8125 C-3.91625 9.534375 -3.9575 10.25625 -4 11 C-4.99 10.67 -5.98 10.34 -7 10 C-5.6062718 5.56541027 -3.39417765 3.12621626 0 0 Z " fill="#30A49F" transform="translate(40,33)"/>
<path d="M0 0 C2.05883923 4.11767846 2.96165128 7.54993405 4 12 C2.68 11.34 1.36 10.68 0 10 C0 6.7 0 3.4 0 0 Z " fill="#E9F3F4" transform="translate(0,110)"/>
<path d="M0 0 C0.99 1.32 1.98 2.64 3 4 C0.36 4.33 -2.28 4.66 -5 5 C-5 4.01 -5 3.02 -5 2 C-3.35 1.34 -1.7 0.68 0 0 Z " fill="#135254" transform="translate(112,194)"/>
<path d="M0 0 C-0.33 1.98 -0.66 3.96 -1 6 C-2.65 6 -4.3 6 -6 6 C-4.90218919 2.70656758 -3.7827394 0 0 0 Z " fill="#0D9797" transform="translate(88,121)"/>
<path d="M0 0 C1.32 0 2.64 0 4 0 C4 0.99 4 1.98 4 3 C4.66 3 5.32 3 6 3 C6 3.66 6 4.32 6 5 C4.35 5 2.7 5 1 5 C0.67 3.35 0.34 1.7 0 0 Z " fill="#13979A" transform="translate(42,82)"/>
<path d="M0 0 C0.5775 0.226875 1.155 0.45375 1.75 0.6875 C0.80125 1.079375 -0.1475 1.47125 -1.125 1.875 C-4.59127338 3.88543856 -5.2302693 4.91449642 -6.25 8.6875 C-6.91 8.3575 -7.57 8.0275 -8.25 7.6875 C-6.86345583 3.41232214 -5.12511737 -0.71182186 0 0 Z " fill="#339C99" transform="translate(24.25,54.3125)"/>
<path d="M0 0 C0.99 0 1.98 0 3 0 C3 0.66 3 1.32 3 2 C3.61875 2.268125 4.2375 2.53625 4.875 2.8125 C7 4 7 4 9 7 C6 7 6 7 4.39453125 5.46875 C3.87246094 4.8190625 3.35039063 4.169375 2.8125 3.5 C2.28269531 2.8503125 1.75289062 2.200625 1.20703125 1.53125 C0.80871094 1.0259375 0.41039062 0.520625 0 0 Z " fill="#359896" transform="translate(50,95)"/>
<path d="M0 0 C1.14926266 0.95421808 2.29430541 1.91352045 3.4375 2.875 C4.07558594 3.40867187 4.71367188 3.94234375 5.37109375 4.4921875 C7 6 7 6 8 8 C7.01 8 6.02 8 5 8 C4.34 7.34 3.68 6.68 3 6 C2.46375 5.525625 1.9275 5.05125 1.375 4.5625 C0 3 0 3 0 0 Z " fill="#123637" transform="translate(120,80)"/>
<path d="M0 0 C2.64 0.33 5.28 0.66 8 1 C8 1.66 8 2.32 8 3 C6.02 3.66 4.04 4.32 2 5 C1.34 4.34 0.68 3.68 0 3 C0 2.01 0 1.02 0 0 Z " fill="#119B9A" transform="translate(32,72)"/>
<path d="M0 0 C4.27786748 0.49360009 7.09567131 1.04783565 11 3 C7.7 3 4.4 3 1 3 C0.67 2.01 0.34 1.02 0 0 Z " fill="#E3F7F8" transform="translate(80,197)"/>
<path d="M0 0 C0.66 0.33 1.32 0.66 2 1 C0.92456217 1.98783194 -0.16073217 2.96493943 -1.25 3.9375 C-2.15492188 4.75541016 -2.15492188 4.75541016 -3.078125 5.58984375 C-5.08467305 7.06212799 -6.57002449 7.57529189 -9 8 C-6.14723863 5.06799526 -3.34920216 2.35684596 0 0 Z " fill="#DFF0F2" transform="translate(147,179)"/>
<path d="M0 0 C1.98 0.495 1.98 0.495 4 1 C3.01 1.495 3.01 1.495 2 2 C2.33 3.65 2.66 5.3 3 7 C1.68 6.01 0.36 5.02 -1 4 C-0.67 2.68 -0.34 1.36 0 0 Z " fill="#154847" transform="translate(27,153)"/>
<path d="M0 0 C1.12894876 0.93274109 2.25300876 1.87140122 3.375 2.8125 C4.00148438 3.33457031 4.62796875 3.85664062 5.2734375 4.39453125 C7 6 7 6 9 9 C5.0873016 7.6957672 2.62689759 6.21065261 0 3 C0 2.01 0 1.02 0 0 Z " fill="#E0FEFE" transform="translate(41,87)"/>
<path d="M0 0 C0.99 0.66 1.98 1.32 3 2 C0.36 3.65 -2.28 5.3 -5 7 C-3.92643531 2.70574125 -3.4915227 2.25259529 0 0 Z " fill="#E2FCFB" transform="translate(63,11)"/>
<path d="M0 0 C0 0.66 0 1.32 0 2 C-0.66 2 -1.32 2 -2 2 C-2.33 2.99 -2.66 3.98 -3 5 C-5.97 4.505 -5.97 4.505 -9 4 C-3 0 -3 0 0 0 Z " fill="#285758" transform="translate(102,151)"/>
<path d="M0 0 C3.79588866 0.54226981 5.47211993 2.20127563 8 5 C7.67 5.99 7.34 6.98 7 8 C5.83035398 6.8572081 4.66435444 5.71068285 3.5 4.5625 C2.8503125 3.92441406 2.200625 3.28632812 1.53125 2.62890625 C0 1 0 1 0 0 Z " fill="#4EABA8" transform="translate(176,104)"/>
<path d="M0 0 C3.36720387 1.39332574 4.9859524 2.9789286 7 6 C5.68 6 4.36 6 3 6 C0 2.78571429 0 2.78571429 0 0 Z " fill="#113939" transform="translate(137,98)"/>
<path d="M0 0 C1.258125 0.12375 2.51625 0.2475 3.8125 0.375 C4.87404297 0.47941406 4.87404297 0.47941406 5.95703125 0.5859375 C8 1 8 1 11 3 C3.49230769 3.36923077 3.49230769 3.36923077 1 1.5 C0.67 1.005 0.34 0.51 0 0 Z " fill="#63C6C5" transform="translate(104,0)"/>
<path d="M0 0 C0.66 0.33 1.32 0.66 2 1 C0.02 3.31 -1.96 5.62 -4 8 C-4.66 7.67 -5.32 7.34 -6 7 C-4.02 4.69 -2.04 2.38 0 0 Z " fill="#D8ECEE" transform="translate(181,144)"/>
<path d="M0 0 C2.0625 0.4375 2.0625 0.4375 4 1 C4 1.99 4 2.98 4 4 C3.01 3.67 2.02 3.34 1 3 C0.67 3.66 0.34 4.32 0 5 C-0.5625 3.0625 -0.5625 3.0625 -1 1 C-0.67 0.67 -0.34 0.34 0 0 Z " fill="#0D4E50" transform="translate(177,141)"/>
<path d="M0 0 C1.1725131 0.95117134 2.33787015 1.91117009 3.5 2.875 C4.47453125 3.67550781 4.47453125 3.67550781 5.46875 4.4921875 C5.9740625 4.98976563 6.479375 5.48734375 7 6 C7 6.66 7 7.32 7 8 C3.28631113 6.76210371 2.22645819 5.14775123 0 2 C0 1.34 0 0.68 0 0 Z " fill="#113B3E" transform="translate(152,112)"/>
<path d="M0 0 C1.98 0.66 3.96 1.32 6 2 C6 3.32 6 4.64 6 6 C3.97945196 4.35830472 1.97956942 2.69088222 0 1 C0 0.67 0 0.34 0 0 Z " fill="#349897" transform="translate(60,105)"/>
</svg>
